<svg xmlns="http://www.w3.org/2000/svg" viewBox="0 0 500 500"><g id="freepik--background-simple--inject-55"><path d="M80.81,99.22C108.73,39.77,207.87,48.16,246.13,90s50.7,68.6,85.21,53,78.52-11.44,81,38.16S374.47,289.37,310.29,306.72s-64.16,78.76-149.1,66.37c-46.31-6.75-47.36-56.86-40.82-98.3S48.44,168.16,80.81,99.22Z" style="fill:#BA68C8"></path><path d="M80.81,99.22C108.73,39.77,207.87,48.16,246.13,90s50.7,68.6,85.21,53,78.52-11.44,81,38.16S374.47,289.37,310.29,306.72s-64.16,78.76-149.1,66.37c-46.31-6.75-47.36-56.86-40.82-98.3S48.44,168.16,80.81,99.22Z" style="fill:#fff;opacity:0.9"></path></g><g id="freepik--Shadow--inject-55"><ellipse id="freepik--path--inject-55" cx="250" cy="416.24" rx="193.89" ry="11.32" style="fill:#f5f5f5"></ellipse></g><g id="freepik--Devices--inject-55"><path d="M338,399.31c-23.82,0-75.18-.68-90.73-6.32-16.2-5.87-21.5-53.6-24.35-79.24-.78-7-1.34-12.07-1.85-13.41-3.16-8.45-8.79-7.47-9-7.42l-.2-1c.07,0,6.7-1.22,10.17,8.05.55,1.46,1.09,6.31,1.9,13.65,2.63,23.61,8.09,72.75,23.7,78.41,20.2,7.33,101.87,6.21,102.7,6.19v1C350.09,399.25,345.35,399.31,338,399.31Z" style="fill:#263238"></path><g style="opacity:0.6000000000000001"><path d="M338,399.31c-23.82,0-75.18-.68-90.73-6.32-16.2-5.87-21.5-53.6-24.35-79.24-.78-7-1.34-12.07-1.85-13.41-3.16-8.45-8.79-7.47-9-7.42l-.2-1c.07,0,6.7-1.22,10.17,8.05.55,1.46,1.09,6.31,1.9,13.65,2.63,23.61,8.09,72.75,23.7,78.41,20.2,7.33,101.87,6.21,102.7,6.19v1C350.09,399.25,345.35,399.31,338,399.31Z" style="fill:#fff"></path></g><path d="M364.17,399.24H244.08c-13.73,0-16.86-30.47-19.63-57.35-2.21-21.58-4.31-42-11.22-42.16l0-1c7.78.23,9.83,20.08,12.19,43.06,2.72,26.46,5.81,56.45,18.63,56.45H364.17Z" style="fill:#263238"></path><g style="opacity:0.2"><path d="M364.17,399.24H244.08c-13.73,0-16.86-30.47-19.63-57.35-2.21-21.58-4.31-42-11.22-42.16l0-1c7.78.23,9.83,20.08,12.19,43.06,2.72,26.46,5.81,56.45,18.63,56.45H364.17Z" style="fill:#fff"></path></g><path d="M344.93,399.24H261.69c-21.95,0-31.14-53.57-36.63-85.57-1.33-7.76-2.38-13.89-3.29-17.19-2.7-9.72-9.24-8.07-9.52-8l-.26-1c.08,0,7.79-2,10.74,8.69.93,3.36,2,9.5,3.32,17.29,5.08,29.62,14.53,84.74,35.64,84.74h83.24Z" style="fill:#263238"></path><g style="opacity:0.4"><path d="M344.93,399.24H261.69c-21.95,0-31.14-53.57-36.63-85.57-1.33-7.76-2.38-13.89-3.29-17.19-2.7-9.72-9.24-8.07-9.52-8l-.26-1c.08,0,7.79-2,10.74,8.69.93,3.36,2,9.5,3.32,17.29,5.08,29.62,14.53,84.74,35.64,84.74h83.24Z" style="fill:#fff"></path></g><rect x="335.61" y="351.09" width="91.44" height="48.4" style="fill:#263238"></rect><rect x="335.61" y="351.09" width="91.44" height="48.4" style="fill:#fff;opacity:0.4"></rect><rect x="393.29" y="351.09" width="33.76" height="48.4" style="opacity:0.2;isolation:isolate"></rect><path d="M72.57,311.59h34.6l-5.74-22.69a1.25,1.25,0,0,0-1.17-.9H67.55a.69.69,0,0,0-.71.9Z" style="fill:#263238"></path><polygon points="72.83 309.7 105.95 309.7 100.92 289.78 67.8 289.78 72.83 309.7" style="fill:#BA68C8"></polygon><polygon points="72.83 309.7 105.95 309.7 100.92 289.78 67.8 289.78 72.83 309.7" style="fill:#fff;opacity:0.6000000000000001;isolation:isolate"></polygon><path d="M87.65,310.87h34.64v1.44a1.12,1.12,0,0,1-1.12,1.11H73.69a1.12,1.12,0,0,1-1.12-1.11v-1.44Z" style="fill:#263238"></path><path d="M87.65,310.87h34.64v1.44a1.12,1.12,0,0,1-1.12,1.11H73.69a1.12,1.12,0,0,1-1.12-1.11v-1.44Z" style="fill:#fff;opacity:0.6000000000000001;isolation:isolate"></path><path d="M103.87,310.87v.49h6v-.49h12.39v1.44a1.12,1.12,0,0,1-1.12,1.11H88.77a1.12,1.12,0,0,1-1.12-1.11v-1.44Z" style="fill:#fff;opacity:0.2;isolation:isolate"></path><polygon points="85.78 301.54 101.65 301.54 99.34 292.43 83.47 292.43 85.78 301.54" style="fill:#fff;opacity:0.6000000000000001;isolation:isolate"></polygon><polygon points="83.61 292.96 99.48 292.96 99.34 292.43 83.47 292.43 83.61 292.96" style="fill:#BA68C8"></polygon><polygon points="73.67 308.27 95.75 308.27 92.55 295.6 70.47 295.6 73.67 308.27" style="fill:#fff;isolation:isolate"></polygon><polygon points="70.66 296.35 92.74 296.35 92.55 295.6 70.47 295.6 70.66 296.35" style="fill:#BA68C8"></polygon><path d="M178,311.59H143.38l5.73-22.69a1.26,1.26,0,0,1,1.17-.9H183a.7.7,0,0,1,.72.9Z" style="fill:#263238"></path><polygon points="177.71 309.7 144.59 309.7 149.63 289.78 182.75 289.78 177.71 309.7" style="fill:#BA68C8"></polygon><polygon points="177.71 309.7 144.59 309.7 149.63 289.78 182.75 289.78 177.71 309.7" style="fill:#fff;opacity:0.6000000000000001;isolation:isolate"></polygon><path d="M162.89,310.87H128.26v1.44a1.11,1.11,0,0,0,1.11,1.11h47.48a1.12,1.12,0,0,0,1.12-1.11v-1.44Z" style="fill:#263238"></path><path d="M162.89,310.87H128.26v1.44a1.11,1.11,0,0,0,1.11,1.11h47.48a1.12,1.12,0,0,0,1.12-1.11v-1.44Z" style="fill:#fff;opacity:0.6000000000000001;isolation:isolate"></path><path d="M146.68,310.87v.49h-6v-.49H128.26v1.44a1.11,1.11,0,0,0,1.11,1.11h32.41a1.11,1.11,0,0,0,1.11-1.11v-1.44Z" style="fill:#fff;opacity:0.2;isolation:isolate"></path><polygon points="176.26 308.23 146.54 308.23 150.85 291.18 180.57 291.18 176.26 308.23" style="fill:#fff;isolation:isolate"></polygon><polygon points="180.32 292.18 150.6 292.18 150.85 291.18 180.57 291.18 180.32 292.18" style="fill:#BA68C8"></polygon><rect x="193.08" y="282.1" width="22.05" height="31.33" transform="translate(408.22 595.52) rotate(180)" style="fill:#263238"></rect><rect x="193.08" y="282.1" width="22.05" height="31.33" transform="translate(408.22 595.52) rotate(180)" style="fill:#fff;opacity:0.4"></rect><rect x="193.09" y="282.1" width="11.03" height="31.33" transform="translate(397.2 595.52) rotate(180)" style="fill:#fff;opacity:0.2"></rect><polygon points="105.73 313.31 105.73 313.31 223.64 313.31 223.64 399.49 217.98 399.49 217.98 323.23 173.64 323.23 173.64 399.49 167.98 399.49 167.98 323.23 111.4 323.23 111.4 399.49 105.73 399.49 105.73 323.23 61.39 323.23 61.39 399.49 55.73 399.49 55.73 313.31 105.73 313.31" style="fill:#BA68C8"></polygon><polygon points="105.73 313.31 105.73 313.31 223.64 313.31 223.64 399.49 217.98 399.49 217.98 323.23 173.64 323.23 173.64 399.49 167.98 399.49 167.98 323.23 111.4 323.23 111.4 399.49 105.73 399.49 105.73 323.23 61.39 323.23 61.39 399.49 55.73 399.49 55.73 313.31 105.73 313.31" style="fill:#fff;opacity:0.4"></polygon><polygon points="108.73 313.31 108.73 399.49 111.4 399.49 111.4 323.23 220.98 323.23 220.98 399.49 223.64 399.49 223.64 313.31 108.73 313.31" style="fill:#fff;opacity:0.30000000000000004"></polygon><g style="opacity:0.2;isolation:isolate"><rect x="413.16" y="382.89" width="1" height="11.26"></rect><rect x="415.28" y="382.89" width="1" height="11.26"></rect><rect x="417.4" y="382.89" width="1" height="11.26"></rect><rect x="419.52" y="382.89" width="1" height="11.26"></rect><rect x="421.63" y="382.89" width="1" height="11.26"></rect><rect x="423.75" y="382.89" width="1" height="11.26"></rect><path d="M406.68,364.24h-9.15v-9.15h9.15Zm-8.15-1h7.15v-7.15h-7.15Z"></path><path d="M348.71,399.32h-9.53V356.48h9.53Zm-8.53-1h7.53V357.48h-7.53Z"></path></g><polygon points="372.15 351.09 347.65 351.09 351.58 345.59 368.23 345.59 372.15 351.09" style="fill:#263238"></polygon><circle cx="359.91" cy="271.49" r="24.75" transform="translate(-76.5 158.4) rotate(-22.5)" style="fill:#BA68C8"></circle><path d="M384.66,271.48h0c0,.33,0,.66,0,1a24.43,24.43,0,0,1-1.72,8.13c-.13.34-.27.67-.42,1a24.55,24.55,0,0,1-5.88,8.13c-.37.35-.76.68-1.16,1a24.62,24.62,0,0,1-14.69,5.48l-.86,0-.86,0a24.64,24.64,0,0,1-14.7-5.48c-.4-.32-.79-.65-1.16-1a24.52,24.52,0,0,1-5.87-8.13,9.63,9.63,0,0,1-.42-1,24.2,24.2,0,0,1-1.73-8.13c0-.33,0-.66,0-1h0a24.6,24.6,0,0,1,1.37-8.13c.12-.34.24-.67.38-1a24.47,24.47,0,0,1,5.27-8.12c.34-.35.68-.68,1-1a24.74,24.74,0,0,1,33.41,0c.36.32.7.65,1,1a24.47,24.47,0,0,1,5.27,8.12c.14.33.26.66.38,1A24.6,24.6,0,0,1,384.66,271.48Z" style="fill:#fff;opacity:0.6000000000000001"></path><path d="M379.23,271.48a30.7,30.7,0,0,0-1.08-8.13h5.14c-.12-.34-.24-.67-.38-1h-5.05a26.31,26.31,0,0,0-4.11-8.12h3.89c-.33-.35-.67-.68-1-1H373c-3.44-4-8-6.49-13-6.49s-9.61,2.46-13,6.49H343.2c-.35.32-.69.65-1,1h3.89a26.31,26.31,0,0,0-4.11,8.12H336.9c-.14.33-.26.66-.38,1h5.14a31.11,31.11,0,0,0-1.08,8.13h-5.43c0,.33,0,.66,0,1h5.43a30.94,30.94,0,0,0,1.34,8.13h-5a9.63,9.63,0,0,0,.42,1h4.95a25.67,25.67,0,0,0,4.58,8.13h-3.66c.37.35.76.68,1.16,1h3.41a17.06,17.06,0,0,0,11.29,5.48l.86,0,.86,0a17.06,17.06,0,0,0,11.28-5.48h3.41c.4-.32.79-.65,1.16-1H373a25.67,25.67,0,0,0,4.58-8.13h5c.15-.33.29-.66.42-1h-5.05a30.94,30.94,0,0,0,1.34-8.13h5.43c0-.33,0-.66,0-1h-5.43Zm-2.41-9.13h-9.24a47,47,0,0,0-1.76-8.12h6.65A24.9,24.9,0,0,1,376.82,262.35Zm-23.58,18.26a67,67,0,0,1-.58-8.13h14.49a67,67,0,0,1-.58,8.13Zm13.19,1a41.2,41.2,0,0,1-2,8.13h-9a41.2,41.2,0,0,1-2-8.13Zm-13.78-10.13a70.65,70.65,0,0,1,.46-8.13H366.7a70.65,70.65,0,0,1,.46,8.13Zm.59-9.13a44.27,44.27,0,0,1,1.8-8.12h9.73a44.27,44.27,0,0,1,1.8,8.12Zm18.37-9.12h-6.13a14.45,14.45,0,0,0-3-5.25A16.64,16.64,0,0,1,371.61,253.23Zm-11.7-5.49c1.55,0,3.18,2,4.5,5.49h-9C356.72,249.74,358.35,247.74,359.91,247.74Zm-2.58.24a14.17,14.17,0,0,0-3,5.25h-6.13A16.6,16.6,0,0,1,357.33,248Zm-10,6.25H354a46.11,46.11,0,0,0-1.75,8.12H343A24.88,24.88,0,0,1,347.34,254.23Zm-4.65,9.12h9.42a72.13,72.13,0,0,0-.46,8.13H341.58A30.24,30.24,0,0,1,342.69,263.35Zm-1.09,9.13h10.06a70.88,70.88,0,0,0,.57,8.13H343A29.63,29.63,0,0,1,341.6,272.48Zm1.73,9.13h9a43.51,43.51,0,0,0,2,8.13h-6.14A24.21,24.21,0,0,1,343.33,281.61Zm5.86,9.13h5.53a13,13,0,0,0,2.61,4.26A16.16,16.16,0,0,1,349.19,290.74Zm10.72,4.5c-1.41,0-2.87-1.63-4.12-4.5H364C362.77,293.61,361.31,295.24,359.91,295.24Zm2.58-.24a13,13,0,0,0,2.6-4.26h5.53A16.18,16.18,0,0,1,362.49,295Zm9.13-5.26h-6.14a42.74,42.74,0,0,0,2-8.13h9A24.21,24.21,0,0,1,371.62,289.74Zm5.2-9.13h-9.24a70.88,70.88,0,0,0,.57-8.13h10.06A29.63,29.63,0,0,1,376.82,280.61Zm-8.66-9.13a69.85,69.85,0,0,0-.46-8.13h9.42a29.84,29.84,0,0,1,1.11,8.13Z" style="fill:#fff"></path><polygon points="372.15 351.09 347.65 351.09 351.58 345.59 368.23 345.59 372.15 351.09" style="fill:#fff;opacity:0.6000000000000001"></polygon><rect x="389.53" y="217.33" width="33.63" height="25.71" rx="1.48" style="fill:#BA68C8"></rect><rect x="389.53" y="217.33" width="33.63" height="25.71" rx="1.48" style="fill:#fff;opacity:0.7000000000000001"></rect><rect x="397.24" y="228.41" width="15" height="11.47" rx="0.66" style="fill:#fff;opacity:0.2"></rect><rect x="403.77" y="220.49" width="15" height="11.47" rx="0.66" style="fill:#fff;opacity:0.2"></rect><rect x="381.33" y="302.9" width="20.66" height="15.8" rx="0.91" style="fill:#BA68C8"></rect><rect x="381.33" y="302.9" width="20.66" height="15.8" rx="0.91" style="fill:#fff;opacity:0.7000000000000001"></rect><rect x="383.87" y="304.85" width="15.57" height="11.9" rx="0.69" style="fill:#fff;opacity:0.2"></rect><rect x="305.69" y="271.49" width="30.85" height="23.59" rx="1.36" style="fill:#BA68C8"></rect><rect x="305.69" y="271.49" width="30.85" height="23.59" rx="1.36" style="fill:#fff;opacity:0.7000000000000001"></rect><rect x="321.11" y="279.04" width="12.16" height="9.3" rx="0.54" style="fill:#fff;opacity:0.2"></rect><rect x="314.64" y="281.61" width="12.16" height="9.3" rx="0.54" style="fill:#fff;opacity:0.2"></rect><rect x="309.83" y="274.4" width="12.16" height="9.3" rx="0.54" style="fill:#fff;opacity:0.2"></rect></g><g id="freepik--Character--inject-55"><polygon points="169.93 417.86 169.93 412.54 171.81 411.35 156.98 411.35 146.3 417.86 169.93 417.86" style="fill:#BA68C8"></polygon><polygon points="155.78 412.54 155.78 417.86 146.3 417.86 156.98 411.35 155.78 412.54" style="fill:#fff;opacity:0.2"></polygon><rect x="156.57" y="412.88" width="12.73" height="4.97" style="fill:#263238"></rect><polygon points="169.93 412.54 155.78 412.54 156.98 411.35 171.81 411.35 169.93 412.54" style="opacity:0.2;isolation:isolate"></polygon><rect x="156.57" y="412.88" width="12.73" height="4.97" style="fill:#fff;opacity:0.2"></rect><path d="M166.79,415.87a.5.5,0,0,1,0-1c18.92-.7,22.25-71,24.46-117.56.63-13.24,1.17-24.68,2-31.84,4.29-38.7,24.51-47.16,30.6-48.83a.5.5,0,0,1,.62.35.5.5,0,0,1-.35.61c-5.94,1.63-25.66,9.91-29.88,48-.79,7.13-1.33,18.55-2,31.78-2.22,46.9-5.58,117.77-25.42,118.51Z" style="fill:#263238"></path><g style="opacity:0.4"><path d="M166.79,415.87a.5.5,0,0,1,0-1c18.92-.7,22.25-71,24.46-117.56.63-13.24,1.17-24.68,2-31.84,4.29-38.7,24.51-47.16,30.6-48.83a.5.5,0,0,1,.62.35.5.5,0,0,1-.35.61c-5.94,1.63-25.66,9.91-29.88,48-.79,7.13-1.33,18.55-2,31.78-2.22,46.9-5.58,117.77-25.42,118.51Z" style="fill:#fff"></path></g><path d="M163.8,415.87a.51.51,0,0,1-.47-.31.5.5,0,0,1,.28-.65c.19-.08,19.39-8.22,23-34.33.87-6.29.6-18.39.25-33.72-.91-40.31-2.29-101.23,16.87-120.83a20.11,20.11,0,0,1,14.82-6.4.5.5,0,0,1,.5.5.5.5,0,0,1-.5.5,19.17,19.17,0,0,0-14.11,6.1c-18.86,19.3-17.49,80-16.58,120.11.35,15.37.62,27.51-.26,33.88-3.68,26.7-23.41,35-23.6,35.11A.46.46,0,0,1,163.8,415.87Z" style="fill:#BA68C8"></path><g style="opacity:0.2"><path d="M163.8,415.87a.51.51,0,0,1-.47-.31.5.5,0,0,1,.28-.65c.19-.08,19.39-8.22,23-34.33.87-6.29.6-18.39.25-33.72-.91-40.31-2.29-101.23,16.87-120.83a20.11,20.11,0,0,1,14.82-6.4.5.5,0,0,1,.5.5.5.5,0,0,1-.5.5,19.17,19.17,0,0,0-14.11,6.1c-18.86,19.3-17.49,80-16.58,120.11.35,15.37.62,27.51-.26,33.88-3.68,26.7-23.41,35-23.6,35.11A.46.46,0,0,1,163.8,415.87Z" style="fill:#fff"></path></g><path d="M159.8,415.87a.5.5,0,0,1,0-1c2,0,4.53-1.38,7-3.87,4.3-4.39,18.23-23,17.1-78.48-1.28-62.37-2.3-111.64,40-112.89a.52.52,0,0,1,.51.48.5.5,0,0,1-.48.52c-41.36,1.22-40.35,50.05-39.08,111.87,1.14,55.86-13,74.74-17.38,79.2C164.85,414.39,162.12,415.87,159.8,415.87Z" style="fill:#263238"></path><g style="opacity:0.6000000000000001"><path d="M159.8,415.87a.5.5,0,0,1,0-1c2,0,4.53-1.38,7-3.87,4.3-4.39,18.23-23,17.1-78.48-1.28-62.37-2.3-111.64,40-112.89a.52.52,0,0,1,.51.48.5.5,0,0,1-.48.52c-41.36,1.22-40.35,50.05-39.08,111.87,1.14,55.86-13,74.74-17.38,79.2C164.85,414.39,162.12,415.87,159.8,415.87Z" style="fill:#fff"></path></g><path d="M210.85,220.23a11.27,11.27,0,0,1,5,.32c.44.24,4.74,4.44,5.19,4.54s8.9.41,9.89.33,6.87-3,7.37-3.16a7,7,0,0,1,4.06.7l-1.79,13.9-20.27,1.29s-7.55-6-7.76-6.27-.91-6.09-.91-6.09Z" style="fill:#BA68C8"></path><path d="M210.85,220.23a11.27,11.27,0,0,1,5,.32c.44.24,4.74,4.44,5.19,4.54s8.9.41,9.89.33,6.87-3,7.37-3.16a7,7,0,0,1,4.06.7l-1.79,13.9-20.27,1.29s-7.55-6-7.76-6.27-.91-6.09-.91-6.09Z" style="fill:#fff;opacity:0.30000000000000004"></path><path d="M225.55,315.64,224,328.17l.45,14.17H210.49l-.76-13.12-3-13.22S216.85,311.29,225.55,315.64Z" style="fill:#263238"></path><path d="M252.85,307.05l1.9,15.23L257.24,337l-14.77,2.43s-2.22-8.46-2.46-13.51c-.17-3.59-3.78-13.73-3.78-13.73Z" style="fill:#263238"></path><path d="M208,234.08l-1.26,6.47s20,26.63,21.78,27.42,11.75-6.19,15-21.23a90.92,90.92,0,0,0-1.29-12.66Z" style="fill:#263238"></path><g style="opacity:0.30000000000000004"><path d="M225.55,315.64,224,328.17l.45,14.17H210.49l-.76-13.12-3-13.22S216.85,311.29,225.55,315.64Z" style="fill:#fff"></path><path d="M252.85,307.05l1.9,15.23L257.24,337l-14.77,2.43s-2.22-8.46-2.46-13.51c-.17-3.59-3.78-13.73-3.78-13.73Z" style="fill:#fff"></path><path d="M208,234.08l-1.26,6.47s20,26.63,21.78,27.42,11.75-6.19,15-21.23a90.92,90.92,0,0,0-1.29-12.66Z" style="fill:#fff"></path></g><path d="M234.43,227.34v5.07s-9.13,2.33-13.83-.38v-4.28a7.21,7.21,0,0,1,2.44-1.52l-.59-12.16h9.76v12.16A9,9,0,0,1,234.43,227.34Z" style="fill:#BA68C8"></path><path d="M234.43,227.34s-1.22,2.06-5.57,2.06a24,24,0,0,1-8.26-1.65,7.21,7.21,0,0,1,2.44-1.52,12.24,12.24,0,0,0,5.43,1.11c2.87-.17,3.74-1.11,3.74-1.11A9,9,0,0,1,234.43,227.34Z" style="fill:#fff;opacity:0.2"></path><path d="M213.73,216.35a2.7,2.7,0,0,1-1.82-.69c-3.24-2.75-1.61-9.23-1.54-9.51l1,.25c0,.06-1.53,6.16,1.22,8.5a1.8,1.8,0,0,0,1.48.42c2.12-.28,4.79-3.58,5.63-4.82l.83.56c-.13.2-3.33,4.85-6.33,5.26Z" style="fill:#263238"></path><g style="opacity:0.6000000000000001"><path d="M213.73,216.35a2.7,2.7,0,0,1-1.82-.69c-3.24-2.75-1.61-9.23-1.54-9.51l1,.25c0,.06-1.53,6.16,1.22,8.5a1.8,1.8,0,0,0,1.48.42c2.12-.28,4.79-3.58,5.63-4.82l.83.56c-.13.2-3.33,4.85-6.33,5.26Z" style="fill:#fff"></path></g><path d="M223.7,219.68c-4.35,0-7.56-1.27-9.53-3.72-3.07-3.79-2-9-2-9.24l1,.21s-1,5,1.78,8.41c1.78,2.19,4.72,3.32,8.76,3.34Z" style="fill:#BA68C8"></path><path d="M236.3,234.57l-.8-.59c1.84-2.52,1.11-5.86-.56-10.09-1.78-4.5-.79-14.18-.75-14.59l1,.1c0,.1-1,9.85.69,14.12C237.66,228.06,238.42,231.68,236.3,234.57Z" style="fill:#BA68C8"></path><path d="M223.24,236.56c-.49-1.27.37-3.06,1.47-5.32,1.9-3.94,4.51-9.33,1.08-14.64l.84-.54c3.73,5.78,1,11.46-1,15.61-1,2-1.77,3.66-1.44,4.54Z" style="fill:#263238"></path><g style="opacity:0.2"><path d="M223.7,219.68c-4.35,0-7.56-1.27-9.53-3.72-3.07-3.79-2-9-2-9.24l1,.21s-1,5,1.78,8.41c1.78,2.19,4.72,3.32,8.76,3.34Z" style="fill:#fff"></path></g><g style="opacity:0.6000000000000001"><path d="M236.3,234.57l-.8-.59c1.84-2.52,1.11-5.86-.56-10.09-1.78-4.5-.79-14.18-.75-14.59l1,.1c0,.1-1,9.85.69,14.12C237.66,228.06,238.42,231.68,236.3,234.57Z" style="fill:#fff"></path></g><path d="M223.24,236.56c-.49-1.27.37-3.06,1.47-5.32,1.9-3.94,4.51-9.33,1.08-14.64l.84-.54c3.73,5.78,1,11.46-1,15.61-1,2-1.77,3.66-1.44,4.54Z" style="fill:#263238"></path><path d="M220.55,233.66c-1.43-1.74-4.9-12.82-.05-21.34l.87.49c-4.62,8.11-1.39,18.58-.05,20.22Z" style="fill:#263238"></path><g style="opacity:0.2"><path d="M220.55,233.66c-1.43-1.74-4.9-12.82-.05-21.34l.87.49c-4.62,8.11-1.39,18.58-.05,20.22Z" style="fill:#fff"></path></g><g style="opacity:0.6000000000000001"><path d="M223.24,236.56c-.49-1.27.37-3.06,1.47-5.32,1.9-3.94,4.51-9.33,1.08-14.64l.84-.54c3.73,5.78,1,11.46-1,15.61-1,2-1.77,3.66-1.44,4.54Z" style="fill:#fff"></path></g><polygon points="337.19 417.86 337.19 412.54 335.31 411.35 350.14 411.35 360.82 417.86 337.19 417.86" style="fill:#BA68C8"></polygon><polygon points="351.34 412.54 351.34 417.86 360.82 417.86 350.14 411.35 351.34 412.54" style="fill:#fff;opacity:0.2"></polygon><rect x="337.82" y="412.88" width="12.73" height="4.97" style="fill:#263238"></rect><polygon points="337.19 412.54 351.34 412.54 350.14 411.35 335.31 411.35 337.19 412.54" style="opacity:0.2;isolation:isolate"></polygon><rect x="337.82" y="412.88" width="12.73" height="4.97" style="fill:#fff;opacity:0.2"></rect><path d="M341.92,416.32h-.05c-24.75-2.73-41.88-32.49-50.93-88.46-7.21-44.55-7.18-92.59-7.17-113.1v-1.95c0-26.91-5-27.8-5-27.81a.49.49,0,0,1-.49-.5.52.52,0,0,1,.52-.5c.61,0,6,.81,6,28.81v1.95c0,20.49,0,68.47,7.15,112.94,9,55.47,25.81,84.95,50.05,87.62a.5.5,0,0,1-.05,1Z" style="fill:#263238"></path><g style="opacity:0.4"><path d="M341.92,416.32h-.05c-24.75-2.73-41.88-32.49-50.93-88.46-7.21-44.55-7.18-92.59-7.17-113.1v-1.95c0-26.91-5-27.8-5-27.81a.49.49,0,0,1-.49-.5.52.52,0,0,1,.52-.5c.61,0,6,.81,6,28.81v1.95c0,20.49,0,68.47,7.15,112.94,9,55.47,25.81,84.95,50.05,87.62a.5.5,0,0,1-.05,1Z" style="fill:#fff"></path></g><path d="M337.63,416.65a25.85,25.85,0,0,1-16.55-6c-17-13.63-36.45-58.82-32.69-196.65.08-2.88.14-5,.14-6.2.13-20.8-4.54-25.08-4.59-25.12a.5.5,0,0,1-.05-.7.49.49,0,0,1,.69-.07c.21.18,5.08,4.45,4.95,25.89,0,1.21-.06,3.34-.14,6.23-3.75,137.42,15.5,182.35,32.31,195.84,6.71,5.38,14.51,7,23.19,4.83a.51.51,0,0,1,.61.37.5.5,0,0,1-.37.6A30.58,30.58,0,0,1,337.63,416.65Z" style="fill:#263238"></path><path d="M337.69,418.11a18.92,18.92,0,0,1-10.47-3.17c-23.65-15.28-36.07-88.13-35-205.12,0-1.85,0-3.25,0-4.14,0-17.55-3.49-23.55-3.52-23.61a.5.5,0,1,1,.85-.52c.15.25,3.67,6.23,3.67,24.13,0,.9,0,2.3,0,4.15C292.15,326.46,304.42,399,327.76,414.1c5.84,3.78,12.48,4,19.74.64a.51.51,0,0,1,.67.25.5.5,0,0,1-.25.66A24.4,24.4,0,0,1,337.69,418.11Z" style="fill:#BA68C8"></path><g style="opacity:0.6000000000000001"><path d="M337.63,416.65a25.85,25.85,0,0,1-16.55-6c-17-13.63-36.45-58.82-32.69-196.65.08-2.88.14-5,.14-6.2.13-20.8-4.54-25.08-4.59-25.12a.5.5,0,0,1-.05-.7.49.49,0,0,1,.69-.07c.21.18,5.08,4.45,4.95,25.89,0,1.21-.06,3.34-.14,6.23-3.75,137.42,15.5,182.35,32.31,195.84,6.71,5.38,14.51,7,23.19,4.83a.51.51,0,0,1,.61.37.5.5,0,0,1-.37.6A30.58,30.58,0,0,1,337.63,416.65Z" style="fill:#fff"></path></g><g style="opacity:0.6000000000000001"><path d="M337.69,418.11a18.92,18.92,0,0,1-10.47-3.17c-23.65-15.28-36.07-88.13-35-205.12,0-1.85,0-3.25,0-4.14,0-17.55-3.49-23.55-3.52-23.61a.5.5,0,1,1,.85-.52c.15.25,3.67,6.23,3.67,24.13,0,.9,0,2.3,0,4.15C292.15,326.46,304.42,399,327.76,414.1c5.84,3.78,12.48,4,19.74.64a.51.51,0,0,1,.67.25.5.5,0,0,1-.25.66A24.4,24.4,0,0,1,337.69,418.11Z" style="fill:#fff"></path></g><path d="M303,179.81s-24.79,6.38-30.24,7.41l-.55.1-.37,0-2.73,0h-.54c-5.33,0-15.7,0-22.12,0h-5.56l-3.58-11.76a20.33,20.33,0,0,1,4.94-.79c.59,0,1.21,0,1.86,0a19,19,0,0,1,1.92.2c.83.14,2.11.33,3.66.56l.47.07c3.37.49,7.87,1.13,11.8,1.67l.53.07,1.66.23.52.07,1.63.22.51.07,1.82.24.51.06c.83.1,1.37.16,1.52.16l.37,0,.52,0c5.16-.43,30.56-2.87,30.56-2.87Z" style="fill:#BA68C8"></path><path d="M303,179.81s-24.79,6.38-30.24,7.41l-.09,0-.46.08-.37,0-2.73,0h-.54c-5.33,0-15.7,0-22.12,0h-5.56L238.94,181l-1.65-5.43a20.33,20.33,0,0,1,4.94-.79c.59,0,1.21,0,1.86,0a19,19,0,0,1,1.92.2c.83.14,2.11.33,3.66.56l.47.07c3.37.49,7.87,1.13,11.8,1.67l.53.07,1.66.23.52.07,1.63.22.51.07,1.82.24.51.06c.83.1,1.37.16,1.52.16l.37,0,.32,0h.2c5.16-.43,30.56-2.87,30.56-2.87Z" style="fill:#fff;opacity:0.6000000000000001"></path><path d="M272.19,187.32l-.37,0-2.73,0h-.15a28.89,28.89,0,0,1-.88-2.87,1.4,1.4,0,0,1-1.33-1.26c-.08-1.19,1.7-2,1.7-2a5.68,5.68,0,0,1,.69-2.95c.83.1,1.37.16,1.52.16l.37,0a9.94,9.94,0,0,0,0,3.46c1.9,1.43.39,2.49.39,2.49A8.6,8.6,0,0,0,272.19,187.32Z" style="opacity:0.4"></path><path d="M272.74,187.22l-.55.1a5.27,5.27,0,0,1-.81-2.87v-.08l.05-.07a1.56,1.56,0,0,0,.42-1.22,1.89,1.89,0,0,0-.75-1.06L271,182l0-.09a9.16,9.16,0,0,1,0-3.46l.52,0a9.31,9.31,0,0,0-.08,3.28,2.22,2.22,0,0,1,.89,1.34,2,2,0,0,1-.46,1.55A4.71,4.71,0,0,0,272.74,187.22Z" style="fill:#BA68C8"></path><path d="M268.1,184.66s.5,1.47,1,2.73h-.54c-.38-1-.75-2.08-.88-2.45a2,2,0,0,1-1.39-1.41,65.4,65.4,0,0,1-6.77-1l-.13,0-.05-.12a21.91,21.91,0,0,1-.74-2.41,69.81,69.81,0,0,0-9.22-1.8,8.46,8.46,0,0,1-4.06,4l1.12,5.21h-.51l-1.18-5.5.18-.08a8.37,8.37,0,0,0,3.21-2.51c-.91-3-4-4.09-5.9-4.47.59,0,1.21,0,1.86,0a6.89,6.89,0,0,1,4.39,4,8,8,0,0,0,1.19-3.22l.47.07a9,9,0,0,1-.57,2.07c1.41.2,7.22,1.06,9.32,1.86l.12,0,0,.12s.41,1.61.7,2.34a58.08,58.08,0,0,0,6.51.93c.12-1,1.26-1.81,1.66-2.06a10.23,10.23,0,0,1,.7-2.74l.51.06a9.54,9.54,0,0,0-.71,2.79l0,.16-.14.08c-.46.26-1.63,1.11-1.56,1.95a1.48,1.48,0,0,0,1.19,1.23l.14,0Z" style="fill:#BA68C8"></path><path d="M262.47,177.39a14.37,14.37,0,0,0-1,2.49l-.48-.13a14.83,14.83,0,0,1,.94-2.43Z" style="fill:#BA68C8"></path><path d="M264.65,177.69c-.36.79-.73,1.75-.9,2.21l-.47-.17c0-.07.41-1.15.85-2.11Z" style="fill:#BA68C8"></path><path d="M266.79,178a14.71,14.71,0,0,0-.66,1.89l-.48-.11a12.37,12.37,0,0,1,.63-1.85Z" style="fill:#BA68C8"></path><path d="M268.1,184.66s.5,1.47,1,2.73h-.54c-.38-1-.75-2.08-.88-2.45a2,2,0,0,1-1.39-1.41,65.4,65.4,0,0,1-6.77-1l-.13,0-.05-.12a21.91,21.91,0,0,1-.74-2.41,69.81,69.81,0,0,0-9.22-1.8,8.46,8.46,0,0,1-4.06,4l1.12,5.21h-.51l-1.18-5.5.18-.08a8.37,8.37,0,0,0,3.21-2.51c-.91-3-4-4.09-5.9-4.47.59,0,1.21,0,1.86,0a6.89,6.89,0,0,1,4.39,4,8,8,0,0,0,1.19-3.22l.47.07a9,9,0,0,1-.57,2.07c1.41.2,7.22,1.06,9.32,1.86l.12,0,0,.12s.41,1.61.7,2.34a58.08,58.08,0,0,0,6.51.93c.12-1,1.26-1.81,1.66-2.06a10.23,10.23,0,0,1,.7-2.74l.51.06a9.54,9.54,0,0,0-.71,2.79l0,.16-.14.08c-.46.26-1.63,1.11-1.56,1.95a1.48,1.48,0,0,0,1.19,1.23l.14,0Z" style="fill:#BA68C8"></path><g style="opacity:0.4"><path d="M272.74,187.22l-.55.1a5.27,5.27,0,0,1-.81-2.87v-.08l.05-.07a1.56,1.56,0,0,0,.42-1.22,1.89,1.89,0,0,0-.75-1.06L271,182l0-.09a9.16,9.16,0,0,1,0-3.46l.52,0a9.31,9.31,0,0,0-.08,3.28,2.22,2.22,0,0,1,.89,1.34,2,2,0,0,1-.46,1.55A4.71,4.71,0,0,0,272.74,187.22Z" style="fill:#fff"></path><path d="M268.1,184.66s.5,1.47,1,2.73h-.54c-.38-1-.75-2.08-.88-2.45a2,2,0,0,1-1.39-1.41,65.4,65.4,0,0,1-6.77-1l-.13,0-.05-.12a21.91,21.91,0,0,1-.74-2.41,69.81,69.81,0,0,0-9.22-1.8,8.46,8.46,0,0,1-4.06,4l1.12,5.21h-.51l-1.18-5.5.18-.08a8.37,8.37,0,0,0,3.21-2.51c-.91-3-4-4.09-5.9-4.47.59,0,1.21,0,1.86,0a6.89,6.89,0,0,1,4.39,4,8,8,0,0,0,1.19-3.22l.47.07a9,9,0,0,1-.57,2.07c1.41.2,7.22,1.06,9.32,1.86l.12,0,0,.12s.41,1.61.7,2.34a58.08,58.08,0,0,0,6.51.93c.12-1,1.26-1.81,1.66-2.06a10.23,10.23,0,0,1,.7-2.74l.51.06a9.54,9.54,0,0,0-.71,2.79l0,.16-.14.08c-.46.26-1.63,1.11-1.56,1.95a1.48,1.48,0,0,0,1.19,1.23l.14,0Z" style="fill:#fff"></path><path d="M262.47,177.39a14.37,14.37,0,0,0-1,2.49l-.48-.13a14.83,14.83,0,0,1,.94-2.43Z" style="fill:#fff"></path><path d="M264.65,177.69c-.36.79-.73,1.75-.9,2.21l-.47-.17c0-.07.41-1.15.85-2.11Z" style="fill:#fff"></path><path d="M266.79,178a14.71,14.71,0,0,0-.66,1.89l-.48-.11a12.37,12.37,0,0,1,.63-1.85Z" style="fill:#fff"></path><path d="M268.1,184.66s.5,1.47,1,2.73h-.54c-.38-1-.75-2.08-.88-2.45a2,2,0,0,1-1.39-1.41,65.4,65.4,0,0,1-6.77-1l-.13,0-.05-.12a21.91,21.91,0,0,1-.74-2.41,69.81,69.81,0,0,0-9.22-1.8,8.46,8.46,0,0,1-4.06,4l1.12,5.21h-.51l-1.18-5.5.18-.08a8.37,8.37,0,0,0,3.21-2.51c-.91-3-4-4.09-5.9-4.47.59,0,1.21,0,1.86,0a6.89,6.89,0,0,1,4.39,4,8,8,0,0,0,1.19-3.22l.47.07a9,9,0,0,1-.57,2.07c1.41.2,7.22,1.06,9.32,1.86l.12,0,0,.12s.41,1.61.7,2.34a58.08,58.08,0,0,0,6.51.93c.12-1,1.26-1.81,1.66-2.06a10.23,10.23,0,0,1,.7-2.74l.51.06a9.54,9.54,0,0,0-.71,2.79l0,.16-.14.08c-.46.26-1.63,1.11-1.56,1.95a1.48,1.48,0,0,0,1.19,1.23l.14,0Z" style="fill:#fff"></path></g><path d="M303,179.81s-24.79,6.38-30.24,7.41l-.09,0a3.65,3.65,0,0,1-.77-2.69,2.44,2.44,0,0,0-.43-2.89,10.07,10.07,0,0,1-.12-3.27h.2c5.16-.43,30.56-2.87,30.56-2.87Z" style="fill:#eec1bb"></path><path d="M245.5,187.37h-4.63L238.94,181A18.63,18.63,0,0,1,245.5,187.37Z" style="opacity:0.2;isolation:isolate"></path><path d="M242.69,201.74v.12c0,.72,0,1.45,0,2.21h0q0,1.86,0,3.87h0a5.48,5.48,0,0,1-2.19,3.07,39.21,39.21,0,0,1-1.67,8.94l-.15.44a17.33,17.33,0,0,1-7.45,2.46c-3.15.23-9.11-1.13-9.11-1.13l-.48-.69a42.93,42.93,0,0,1-4.24-8.73c-.8-.16-4.7-1.09-6.31-3.81a7.89,7.89,0,0,1-1.31.88l-.4-.37A8.07,8.07,0,0,1,208,207.3c-.31-2-.67-3.94-1.08-5.75l-.21-.89c0-.18-.08-.36-.13-.53-.1-.4-.2-.79-.31-1.16-.81-2.79-1.81-5.94-3.09-9.58-.54-1.54-1.13-3.17-1.78-4.91s-.3-2.31-1-4.12a17,17,0,0,1,1.48-.88l.78-.38c.26-.13.52-.24.79-.35a23.6,23.6,0,0,1,3-1l.56-.15c.56-.15,1.11-.27,1.64-.38l.55-.12.86-.16.82-.14,1.49-.24a109.6,109.6,0,0,1,14-1.33c.82,0,1.66,0,2.49,0h.59c1.36,0,2.7.08,3.93.14l1,.06.49,0,.47,0,.46,0,.51,0,.68.05h.21l.33,0,1.85.14a1.26,1.26,0,0,0,0,.12l0,.09.08.25c0,.08.06.18.09.29s.06.19.09.3.07.27.12.42c.12.45.26,1,.42,1.7,0,.2.09.41.14.63s.07.31.1.47.1.46.15.71l.06.31c.07.36.14.73.21,1.13,0,.19.08.4.11.61s.07.41.11.62c.07.43.14.89.21,1.37,0,.3.09.6.13.91.08.62.17,1.27.25,1.95l.12,1.05a.09.09,0,0,1,0,.05h0c0,.27.05.54.08.81a15.34,15.34,0,0,1,1.25,2.3c1.85,4.22-.55,9.89-.55,9.89Z" style="fill:#BA68C8"></path><path d="M242.69,201.74v.12c0,.72,0,1.45,0,2.21h0q0,1.86,0,3.87h0a5.48,5.48,0,0,1-2.19,3.07,39.21,39.21,0,0,1-1.67,8.94l-.15.44a17.33,17.33,0,0,1-7.45,2.46c-3.15.23-9.11-1.13-9.11-1.13l-.48-.69a42.93,42.93,0,0,1-4.24-8.73c-.8-.16-4.7-1.09-6.31-3.81a7.89,7.89,0,0,1-1.31.88l-.4-.37A8.07,8.07,0,0,1,208,207.3c-.31-2-.67-3.94-1.08-5.75l-.21-.89c0-.18-.08-.36-.13-.53-.1-.4-.2-.79-.31-1.16-.81-2.79-1.81-5.94-3.09-9.58-.54-1.54-1.13-3.17-1.78-4.91s-.3-2.31-1-4.12a17,17,0,0,1,1.48-.88l.78-.38c.26-.13.52-.24.79-.35a23.6,23.6,0,0,1,3-1l.56-.15c.56-.15,1.11-.27,1.64-.38l.55-.12.86-.16.82-.14,1.49-.24a109.6,109.6,0,0,1,14-1.33c.82,0,1.66,0,2.49,0h.59c1.36,0,2.7.08,3.93.14l1,.06.49,0,.47,0,.46,0,.51,0,.68.05h.21l.33,0,1.85.14a1.26,1.26,0,0,0,0,.12l0,.09.08.25c0,.08.06.18.09.29s.06.19.09.3.07.27.12.42c.12.45.26,1,.42,1.7,0,.2.09.41.14.63s.07.31.1.47.1.46.15.71l.06.31c.07.36.14.73.21,1.13,0,.19.08.4.11.61s.07.41.11.62c.07.43.14.89.21,1.37,0,.3.09.6.13.91.08.62.17,1.27.25,1.95l.12,1.05a.09.09,0,0,1,0,.05h0c0,.27.05.54.08.81a15.34,15.34,0,0,1,1.25,2.3c1.85,4.22-.55,9.89-.55,9.89Z" style="fill:#fff;opacity:0.6000000000000001"></path><g style="opacity:0.6000000000000001"><path d="M235.8,180.8A1.44,1.44,0,0,0,234,183Z" style="fill:#fff"></path><path d="M236.19,181.12l-1.79,2.2a1.44,1.44,0,0,0,1.79-2.2Z" style="fill:#fff"></path><path d="M232,206.28a1.44,1.44,0,0,0,1.55,2.38Z" style="fill:#fff"></path><path d="M232.42,206l1.55,2.39a1.44,1.44,0,0,0,.23-1.84A1.46,1.46,0,0,0,232.42,206Z" style="fill:#fff"></path><path d="M232.68,217.78a1.44,1.44,0,0,0,2.26-1.71Z" style="fill:#fff"></path><path d="M232.37,217.38l2.27-1.71a1.44,1.44,0,0,0-2.27,1.71Z" style="fill:#fff"></path><path d="M228.47,207.5a1.44,1.44,0,0,0-2.82.31Z" style="fill:#fff"></path><path d="M228.53,208l-2.82.31a1.44,1.44,0,0,0,2.82-.31Z" style="fill:#fff"></path><path d="M230.06,217.59a1.44,1.44,0,0,0-2.48-1.38Z" style="fill:#fff"></path><path d="M229.82,218l-2.49-1.37a1.47,1.47,0,0,0,.67,1.74A1.45,1.45,0,0,0,229.82,218Z" style="fill:#fff"></path><path d="M213.36,183.28a1.45,1.45,0,0,0,1.86,2.16Z" style="fill:#fff"></path><path d="M213.74,183l1.86,2.15a1.46,1.46,0,0,0,0-1.86A1.44,1.44,0,0,0,213.74,183Z" style="fill:#fff"></path></g><path d="M242.71,204.07a8,8,0,0,0-.88-1.85l.86-.36.21-.09,0-.09c.1-.24,2.44-5.87.56-10.17a17.05,17.05,0,0,0-1.56-2.76h0a22.71,22.71,0,0,0-4.11-4.41,20.58,20.58,0,0,0-.21-8.71l-.33,0h-.21a19.92,19.92,0,0,1,.26,8.59h-6.08a10.23,10.23,0,0,1,0-2.6c.64-.39,4.27-2.75,5.14-6l-.51,0c-.95,3.29-4.94,5.67-5,5.69l-.09.05,0,.1a10.69,10.69,0,0,0,0,3.06,10.94,10.94,0,0,1-4.05,5.68,15,15,0,0,1-8-4.84c0-.4-.14-2.39-1-3.25l-.09-.06c-.07,0-6.32-2.27-8.43-4.88l-.55.12c2,2.71,8,5,8.75,5.21a5.52,5.52,0,0,1,.77,2.76l-6.53,1.62c-.3-1.17-1.77-6.31-4.63-9.21l-.56.15c3,2.88,4.54,8.54,4.74,9.33-.38.72-2.89,5.56-2.48,9s4.33,7,5.11,7.74c-.31.73-1.81,4-4.49,5.25l.4.37a7.89,7.89,0,0,0,1.31-.88c1.61,2.72,5.51,3.65,6.31,3.81a42.93,42.93,0,0,0,4.24,8.73h0l.48.69s6,1.36,9.11,1.13l.58-.06h0a17.44,17.44,0,0,0,6.87-2.4l.15-.44h0a39.21,39.21,0,0,0,1.67-8.94,5.48,5.48,0,0,0,2.19-3.07h0a8.11,8.11,0,0,0,.25-1,5.86,5.86,0,0,0-.22-2.87Zm-11.48-19.39h6.24a20.69,20.69,0,0,1,5.57,7c1.66,3.81-.23,8.93-.53,9.68l-1.06.44c-.22-.09-.78-.31-1.58-.55.69-1.34.63-4.65.63-4.79H240s.06,3.45-.61,4.61l.11.06c-.46-.12-1-.24-1.55-.35a12.38,12.38,0,0,0,.51-4.34l-.51,0s.15,2.94-.52,4.23a18.16,18.16,0,0,0-5.15-.09c-.39-1-2.25-5.18-4.44-5.45a15.16,15.16,0,0,0-.75-4.73A11.41,11.41,0,0,0,231.23,184.68Zm.61,16.22a3.27,3.27,0,0,1-2.18,2.09c-1.83.42-3.93-1.16-4.38-1.53.07-1.71.58-5.76,2.31-5.79S231.22,199.34,231.84,200.9ZM209.25,196c-.38-3.21,2-7.95,2.42-8.68l6.71-1.67a15.25,15.25,0,0,0,8.21,5,14.41,14.41,0,0,1,.75,4.62c-2.14.38-2.5,5-2.55,6.14-.6,0-2.28.2-4.21.49a30.45,30.45,0,0,1-.79-3.61l-.5.07a32.74,32.74,0,0,0,.79,3.61l-1.86.33a13.43,13.43,0,0,1-.89-3.27l-.5.07a14.94,14.94,0,0,0,.88,3.31,17.58,17.58,0,0,0-3.51,1.07C213.47,202.74,209.63,199.1,209.25,196Zm2.21,12.21a12.65,12.65,0,0,0,2.89-4.29c3.08-1.42,9.7-2,10.59-2,.12.09.35.28.69.51-1.24,1-6.51,5.64-8.2,9.46C216.54,211.62,212.88,210.68,211.46,208.18ZM231,222.47c-2.54.19-6.46-.68-8.62-1.23a41.4,41.4,0,0,1-4.52-9.13c1.64-3.83,7.31-8.71,8.23-9.48a6.15,6.15,0,0,0,2.77.92,102.07,102.07,0,0,1,2.36,18.89Zm7.18-2.19a25.53,25.53,0,0,1-6.38,2.09,99.3,99.3,0,0,0-2.42-18.84,2.71,2.71,0,0,0,.4,0,3.24,3.24,0,0,0,1.7-1.07c1,.49,6.65,3.55,8.53,8.51A37.58,37.58,0,0,1,238.17,220.28Zm4.27-13.42a5.62,5.62,0,0,1-2.07,3.64c-2-4.89-7.33-7.85-8.57-8.48a7.08,7.08,0,0,0,.48-.87,18.43,18.43,0,0,1,9,1.16A6.51,6.51,0,0,1,242.44,206.86Z" style="fill:#BA68C8"></path><path d="M242.71,204.07a8,8,0,0,0-.88-1.85l.86-.36.21-.09,0-.09c.1-.24,2.44-5.87.56-10.17a17.05,17.05,0,0,0-1.56-2.76h0a22.71,22.71,0,0,0-4.11-4.41,20.58,20.58,0,0,0-.21-8.71l-.33,0h-.21a19.92,19.92,0,0,1,.26,8.59h-6.08a10.23,10.23,0,0,1,0-2.6c.64-.39,4.27-2.75,5.14-6l-.51,0c-.95,3.29-4.94,5.67-5,5.69l-.09.05,0,.1a10.69,10.69,0,0,0,0,3.06,10.94,10.94,0,0,1-4.05,5.68,15,15,0,0,1-8-4.84c0-.4-.14-2.39-1-3.25l-.09-.06c-.07,0-6.32-2.27-8.43-4.88l-.55.12c2,2.71,8,5,8.75,5.21a5.52,5.52,0,0,1,.77,2.76l-6.53,1.62c-.3-1.17-1.77-6.31-4.63-9.21l-.56.15c3,2.88,4.54,8.54,4.74,9.33-.38.72-2.89,5.56-2.48,9s4.33,7,5.11,7.74c-.31.73-1.81,4-4.49,5.25l.4.37a7.89,7.89,0,0,0,1.31-.88c1.61,2.72,5.51,3.65,6.31,3.81a42.93,42.93,0,0,0,4.24,8.73h0l.48.69s6,1.36,9.11,1.13l.58-.06h0a17.44,17.44,0,0,0,6.87-2.4l.15-.44h0a39.21,39.21,0,0,0,1.67-8.94,5.48,5.48,0,0,0,2.19-3.07h0a8.11,8.11,0,0,0,.25-1,5.86,5.86,0,0,0-.22-2.87Zm-11.48-19.39h6.24a20.69,20.69,0,0,1,5.57,7c1.66,3.81-.23,8.93-.53,9.68l-1.06.44c-.22-.09-.78-.31-1.58-.55.69-1.34.63-4.65.63-4.79H240s.06,3.45-.61,4.61l.11.06c-.46-.12-1-.24-1.55-.35a12.38,12.38,0,0,0,.51-4.34l-.51,0s.15,2.94-.52,4.23a18.16,18.16,0,0,0-5.15-.09c-.39-1-2.25-5.18-4.44-5.45a15.16,15.16,0,0,0-.75-4.73A11.41,11.41,0,0,0,231.23,184.68Zm.61,16.22a3.27,3.27,0,0,1-2.18,2.09c-1.83.42-3.93-1.16-4.38-1.53.07-1.71.58-5.76,2.31-5.79S231.22,199.34,231.84,200.9ZM209.25,196c-.38-3.21,2-7.95,2.42-8.68l6.71-1.67a15.25,15.25,0,0,0,8.21,5,14.41,14.41,0,0,1,.75,4.62c-2.14.38-2.5,5-2.55,6.14-.6,0-2.28.2-4.21.49a30.45,30.45,0,0,1-.79-3.61l-.5.07a32.74,32.74,0,0,0,.79,3.61l-1.86.33a13.43,13.43,0,0,1-.89-3.27l-.5.07a14.94,14.94,0,0,0,.88,3.31,17.58,17.58,0,0,0-3.51,1.07C213.47,202.74,209.63,199.1,209.25,196Zm2.21,12.21a12.65,12.65,0,0,0,2.89-4.29c3.08-1.42,9.7-2,10.59-2,.12.09.35.28.69.51-1.24,1-6.51,5.64-8.2,9.46C216.54,211.62,212.88,210.68,211.46,208.18ZM231,222.47c-2.54.19-6.46-.68-8.62-1.23a41.4,41.4,0,0,1-4.52-9.13c1.64-3.83,7.31-8.71,8.23-9.48a6.15,6.15,0,0,0,2.77.92,102.07,102.07,0,0,1,2.36,18.89Zm7.18-2.19a25.53,25.53,0,0,1-6.38,2.09,99.3,99.3,0,0,0-2.42-18.84,2.71,2.71,0,0,0,.4,0,3.24,3.24,0,0,0,1.7-1.07c1,.49,6.65,3.55,8.53,8.51A37.58,37.58,0,0,1,238.17,220.28Zm4.27-13.42a5.62,5.62,0,0,1-2.07,3.64c-2-4.89-7.33-7.85-8.57-8.48a7.08,7.08,0,0,0,.48-.87,18.43,18.43,0,0,1,9,1.16A6.51,6.51,0,0,1,242.44,206.86Z" style="fill:#fff;opacity:0.4"></path><path d="M312.08,172.82c-.79-.9-5.47-4.13-6.47-3.56s-4.62,6.38-5.74,7c-.13.08,2.09,4.11,2.09,4.11a14,14,0,0,0,3-.09C305.82,180,312.88,173.72,312.08,172.82Z" style="fill:#eec1bb"></path><path d="M152.27,205.16c.8-.9,5.47-4.13,6.47-3.56s4.62,6.38,5.74,7a44,44,0,0,1-2.09,4.11,14,14,0,0,1-3-.09C158.54,212.37,151.47,206.06,152.27,205.16Z" style="fill:#eec1bb"></path><path d="M220.11,134.49s8-4.44,14.51-1.14c3,1.53,4.06,5.42,4.7,8.45.88,4.24,1,8.58,1.63,12.86a16,16,0,0,0,1.53,5.21c1.11,2.17,3.37,4.34,2.92,7-.39,2.34-2.79,3.75-4.88,4.39C235,173,228.69,172,223,172.39c-4.62.29-9.07,1.84-13.7,2a7.11,7.11,0,0,1-3.81-.76c-4.45-2.66-2.51-9.5-1.07-13.3,1.22-3.21.32-6.53.72-9.9a31.47,31.47,0,0,1,2.08-8.67C209.49,136.23,214.13,133.33,220.11,134.49Z" style="fill:#263238"></path><path d="M225.38,181.75c-7.8-1.41-10-4.88-10-4.88,5.22-4.45,1.49-12.82,1.49-12.82l9.37,2.25a27.42,27.42,0,0,0-.57,4c-.36,5.74,2.23,5.93,2.23,5.93C229.41,179.38,225.38,181.75,225.38,181.75Z" style="fill:#eec1bb"></path><path d="M226.25,166.3a27.42,27.42,0,0,0-.57,4c-4.51-1.29-8.8-6.21-8.8-6.21Z" style="opacity:0.2;isolation:isolate"></path><path d="M235.86,153.38c-.12,6.08-1.15,11.08-3.9,13.63-2.06,1.93-5.08,2.49-9.39,1.13-10.68-3.38-11.17-19.73-4.36-26.12a9.18,9.18,0,0,1,7.35-2.53C233.77,140.23,236,144.86,235.86,153.38Z" style="fill:#eec1bb"></path><path d="M215.34,152.52s4.45-6.4,4.33-11.66c0,0,16.87-5.19,16.19,11.4,0,0,2.91-14.52-11.18-16.12S208.8,155.2,215.54,162C215.54,162,212.58,156.53,215.34,152.52Z" style="fill:#263238"></path><path d="M216.52,154.37a3.62,3.62,0,0,0-3.58-3.64c-2.57.05-4.25,5.17,2,7C215.8,158,216.39,157.14,216.52,154.37Z" style="fill:#eec1bb"></path><path d="M235.86,153.38c-.12,6.08-1.15,11.08-3.9,13.63-4,.34-9.6-1.1-9.6-1.1-1-6.56-5.91-8-5.91-8a24.52,24.52,0,0,1-.46-6.51,20.21,20.21,0,0,0,2.22-9.41,9.18,9.18,0,0,1,7.35-2.53C233.77,140.23,236,144.86,235.86,153.38Z" style="fill:#BA68C8"></path><path d="M235.86,153.38c-.12,5.83-1.07,10.67-3.57,13.3q-.16.18-.33.33c-4,.34-9.6-1.1-9.6-1.1-1-6.56-5.91-8-5.91-8a24.52,24.52,0,0,1-.46-6.51,20.21,20.21,0,0,0,2.22-9.41,9.62,9.62,0,0,1,1.94-1.43h0a9.13,9.13,0,0,1,5.39-1.09C233.77,140.23,236,144.86,235.86,153.38Z" style="fill:#fff;opacity:0.4"></path><path d="M235.86,153.38c-.12,5.83-1.07,10.67-3.57,13.3a36.79,36.79,0,0,1-9.35-1.12c-1-6.56-5.91-8-5.91-8a24.52,24.52,0,0,1-.46-6.51,20.21,20.21,0,0,0,2.22-9.41,10.74,10.74,0,0,1,1.36-1.08h0a9.13,9.13,0,0,1,5.39-1.09C233.77,140.23,236,144.86,235.86,153.38Z" style="opacity:0.4"></path><path d="M237.3,152.06c-.12,6.08-1.15,11.08-3.9,13.63-4,.34-9.6-1.1-9.6-1.1-1-6.56-5.91-8-5.91-8a24.52,24.52,0,0,1-.46-6.51,20.21,20.21,0,0,0,2.22-9.41,9.18,9.18,0,0,1,7.35-2.53C235.21,138.91,237.46,143.54,237.3,152.06Z" style="fill:#eec1bb"></path><path d="M231.58,152.41a17.26,17.26,0,0,0,2.14,3.59,2.26,2.26,0,0,1-2.23.77Z" style="fill:#d4827d"></path><path d="M226.6,151.37c0,.67-.43,1.2-.88,1.18s-.79-.59-.75-1.27.43-1.2.88-1.18S226.64,150.69,226.6,151.37Z" style="fill:#263238"></path><path d="M225.66,150.12l1.5-.5S226.36,150.82,225.66,150.12Z" style="fill:#263238"></path><path d="M235,151.66c0,.67-.43,1.2-.88,1.18s-.79-.59-.75-1.27.43-1.2.88-1.18S235.05,151,235,151.66Z" style="fill:#263238"></path><path d="M234.08,150.41l1.5-.5S234.78,151.11,234.08,150.41Z" style="fill:#263238"></path><path d="M223.28,147a.34.34,0,0,1-.24-.1.35.35,0,0,1,0-.51,4.61,4.61,0,0,1,4-1.08.36.36,0,0,1,.28.42.36.36,0,0,1-.43.29,3.93,3.93,0,0,0-3.32.87A.39.39,0,0,1,223.28,147Z" style="fill:#263238"></path><path d="M236.17,147.06A.36.36,0,0,1,236,147a3.48,3.48,0,0,0-2.91-.86.36.36,0,0,1-.19-.7,4.2,4.2,0,0,1,3.55,1,.36.36,0,0,1,.06.5A.34.34,0,0,1,236.17,147.06Z" style="fill:#263238"></path><path d="M230.73,160.6a4.56,4.56,0,0,1-4.54-3.09.35.35,0,1,1,.67-.22,3.9,3.9,0,0,0,4.08,2.59.36.36,0,0,1,.39.32.36.36,0,0,1-.32.39Z" style="fill:#263238"></path><path d="M209.24,177.06s2.52,3.06,8.52,4.94c0,0,.77.66,1,3.25,0,0,4,4.23,8,4.84a10,10,0,0,0,4.05-5.68,21.33,21.33,0,0,1,0-3.16s4.16-2.27,5.07-5.74A79.41,79.41,0,0,0,209.24,177.06Z" style="fill:#eec1bb"></path><path d="M201.64,179.34c-5,1.62-13.75,25.67-15.33,27s-23.54.86-23.54.86l-.79,5.43s21.76,3.48,26.5,2.52,17-21.45,17-21.45.93-5.17,0-9A8.13,8.13,0,0,0,201.64,179.34Z" style="fill:#BA68C8"></path><path d="M205.44,193.7l-.53.88-.16.26-.3.49c-3,4.87-12,19-16,19.82-4.74,1-26.5-2.52-26.5-2.52l.79-5.43s22,.47,23.54-.86c1.05-.89,5.26-11.83,9.44-19.53l.25-.45c2-3.66,4-6.5,5.64-7a8.16,8.16,0,0,1,3.8,5.31C206.36,188.53,205.44,193.7,205.44,193.7Z" style="fill:#fff;opacity:0.6000000000000001"></path><path d="M204.91,194.58l-.46.75a12.29,12.29,0,0,0-3.15-7.68,14.06,14.06,0,0,1-5.55-.84l.25-.45a13.79,13.79,0,0,0,5.4.79h.11l.07.07A12.9,12.9,0,0,1,204.91,194.58Z" style="fill:#BA68C8"></path><g style="opacity:0.4"><path d="M204.91,194.58l-.46.75a12.29,12.29,0,0,0-3.15-7.68,14.06,14.06,0,0,1-5.55-.84l.25-.45a13.79,13.79,0,0,0,5.4.79h.11l.07.07A12.9,12.9,0,0,1,204.91,194.58Z" style="fill:#fff"></path></g><path d="M204.75,194.84l-.3.49c-3,4.87-12,19-16,19.82-4.74,1-26.5-2.52-26.5-2.52l.79-5.43s22,.47,23.54-.86c1.05-.89,5.26-11.83,9.44-19.53a40.71,40.71,0,0,0,5.55.84S204,189.71,204.75,194.84Z" style="fill:#eec1bb"></path><path d="M255.13,315.58a2.08,2.08,0,0,1-1.49,2.17,20.13,20.13,0,0,0-.79-3.37c-.06-.17-.12-.32-.18-.47a3.09,3.09,0,0,0-.14-.32,4.71,4.71,0,0,0-.22-.45,3.48,3.48,0,0,0-.23-.38,3.32,3.32,0,0,0-.48-.6,2.89,2.89,0,0,0-.51-.39l-.27-.13-.27-.08a2.1,2.1,0,0,0-.56-.07,3.69,3.69,0,0,0-.65.07,4.6,4.6,0,0,0-.5.13,11.23,11.23,0,0,0-1.17.45c-2.4,1.06-3.53,7.06-4.15,8-.34.5-2.37.74-4.17.86a2.47,2.47,0,0,1-2.5-1.72c-.14-.46-.29-.93-.45-1.42l-1.22-3.91-.52-1.7c-.12-.43-.25-.86-.39-1.3s-.2-.68-.31-1c-.2-.7-.41-1.41-.62-2.12-.1-.35-.21-.71-.31-1.07s-.29-1-.44-1.52c-.05-.17-.1-.34-.14-.51s-.17-.57-.25-.86l-.1-.37-.3-1.09-.3-1.1c-.1-.36-.2-.73-.29-1.09-.39-1.46-.76-2.9-1.11-4.31-.08-.35-.17-.7-.25-1.05s-.18-.71-.26-1.06-.15-.67-.22-1l-.3-1.36c-.17-.8-.33-1.57-.47-2.32-.08-.39-.14-.78-.21-1.15,0-.05,0-.12,0-.19a.13.13,0,0,0,0-.06c0-.15-.06-.35-.1-.58l-.68-4.62-2.67-18.07h0l.07,0,.15.06.11.05.12.05.4.15.28.1.16.06c.27.09.56.18.88.26l.59.14c.22.05.45.09.68.12a5.54,5.54,0,0,0,.57.07c.21,0,.43,0,.64,0a3.68,3.68,0,0,0,3.1-1.3q.52-.69,1-1.41c.21-.29.41-.59.6-.88s.2-.29.29-.44.24-.36.35-.54.35-.53.51-.79c.27-.44.54-.88.8-1.32s.45-.78.67-1.17.47-.83.68-1.24.45-.82.65-1.22c.42-.81.81-1.62,1.18-2.4q.27-.56.51-1.08c.63-1.39,1.18-2.7,1.67-3.88.08-.2.15-.4.23-.59L242,247c.11-.27.21-.54.3-.79s.13-.36.2-.53l.29-.8c.18-.5.34-1,.47-1.35a.36.36,0,0,1,.71.09l.3,3.77s1.1,5,2.62,12.81c0,.17.07.35.11.52.25,1.35.53,2.78.81,4.28l.09.49.75,4.08.09.49c.23,1.26.46,2.56.69,3.89l.09.49C251.64,286.79,253.92,301.75,255.13,315.58Z" style="fill:#BA68C8"></path><path d="M270.46,400l-1.44.25-.49.09-4.54.8s-9.14-21.58-16.34-42.13l-.18-.52c-2-5.63-3.78-11.17-5.2-16.15-.06-.17-.1-.33-.15-.49-.29-1-.56-2-.82-3,0-.17-.08-.34-.13-.5-.26-1-.51-2-.73-3,0-.17-.08-.34-.11-.5-.3-1.31-.55-2.55-.74-3.69a2.38,2.38,0,0,1,1.75-2.71,14.82,14.82,0,0,1,4-.36,14.2,14.2,0,0,0,2,3,5.85,5.85,0,0,0,.61.61c2,1.72,3.67.91,4.93.42a1.7,1.7,0,0,0,.85-.91,5,5,0,0,0,.33-.85h0a17.69,17.69,0,0,0,.47-4.39,1.92,1.92,0,0,1,1.89,1.56Z" style="fill:#BA68C8"></path><path d="M253.7,328.91h0a6.8,6.8,0,0,1-.28,1c-.31.91-.73,1.54-1.27,1.7-1.14.34-3-.34-4.56-1.92a6.12,6.12,0,0,1-.6-.64,10.74,10.74,0,0,1-2.15-4.15c-1.26-4.59,1.12-10.57,4.08-11.91a2.54,2.54,0,0,1,.46-.17h0c2.28-.6,3.56,4,4.33,7.62A23.21,23.21,0,0,1,253.7,328.91Z" style="fill:#BA68C8"></path><g style="opacity:0.6000000000000001"><path d="M255.13,315.58a2.08,2.08,0,0,1-1.49,2.17,20.13,20.13,0,0,0-.79-3.37c-.06-.17-.12-.32-.18-.47a3.09,3.09,0,0,0-.14-.32,4.71,4.71,0,0,0-.22-.45,3.48,3.48,0,0,0-.23-.38,4.5,4.5,0,0,0-.48-.6,2.89,2.89,0,0,0-.51-.39l-.27-.13-.27-.08a2.1,2.1,0,0,0-.56-.07,3.69,3.69,0,0,0-.65.07,4.6,4.6,0,0,0-.5.13,11.23,11.23,0,0,0-1.17.45c-2.4,1.06-3.53,7.06-4.15,8-.34.5-2.37.74-4.17.86a2.47,2.47,0,0,1-2.5-1.72c-.14-.46-.29-.93-.45-1.42l-1.22-3.91-.52-1.7c-.12-.43-.25-.86-.39-1.3s-.2-.68-.31-1c-.2-.7-.41-1.41-.62-2.12-.1-.35-.21-.71-.31-1.07s-.29-1-.44-1.52l-.15-.5-.24-.87-.1-.37-.3-1.09-.3-1.1c-.1-.36-.2-.73-.29-1.09-.39-1.46-.76-2.9-1.11-4.31-.08-.35-.17-.7-.25-1.05s-.18-.71-.26-1.06-.15-.67-.22-1l-.3-1.36c-.17-.8-.33-1.57-.47-2.32-.08-.39-.14-.78-.21-1.15,0-.05,0-.12,0-.19a.13.13,0,0,0,0-.06c0-.15-.06-.35-.1-.58l-.68-4.62-2.67-18.07h0l.07,0,.13.06h0l.11.05.12.05.4.15.28.1.16.06c.27.09.56.18.88.26l.59.14c.22.05.45.09.68.12a5.54,5.54,0,0,0,.57.07c.21,0,.43,0,.64,0a3.68,3.68,0,0,0,3.1-1.3q.52-.69,1-1.41c.21-.29.41-.59.6-.88s.2-.29.29-.44.24-.36.35-.54.35-.53.51-.79c.27-.44.54-.88.8-1.32s.45-.78.67-1.17l.68-1.24.65-1.22c.42-.81.81-1.62,1.18-2.4q.27-.56.51-1.08c.63-1.39,1.18-2.7,1.67-3.88.08-.2.15-.4.23-.59L242,247c.11-.27.21-.54.3-.79s.13-.36.2-.53l.29-.8c.18-.5.34-1,.47-1.35a.36.36,0,0,1,.71.09l.3,3.77s1.1,5,2.62,12.81c0,.17.07.35.11.52.25,1.35.53,2.78.81,4.28l.09.49.75,4.08.09.49c.23,1.26.46,2.56.69,3.89l.09.49C251.64,286.79,253.92,301.75,255.13,315.58Z" style="fill:#fff"></path><path d="M270.46,400l-1.44.25-.49.09-4.54.8s-9.14-21.58-16.34-42.13l-.18-.52c-2-5.63-3.78-11.17-5.2-16.15-.06-.17-.1-.33-.15-.49-.29-1-.56-2-.82-3,0-.17-.08-.34-.13-.5-.26-1-.51-2-.73-3,0-.17-.08-.34-.11-.5-.3-1.31-.55-2.55-.74-3.69a2.38,2.38,0,0,1,1.75-2.71,14.82,14.82,0,0,1,4-.36,14.2,14.2,0,0,0,2,3,5.85,5.85,0,0,0,.61.61c2,1.72,3.67.91,4.93.42a1.7,1.7,0,0,0,.85-.91,5,5,0,0,0,.33-.85h0a17.69,17.69,0,0,0,.47-4.39,1.92,1.92,0,0,1,1.89,1.56Z" style="fill:#fff"></path><path d="M253.7,328.91h0a6.8,6.8,0,0,1-.28,1c-.31.91-.73,1.54-1.27,1.7-1.14.34-3-.34-4.56-1.92a6.12,6.12,0,0,1-.6-.64,10.74,10.74,0,0,1-2.15-4.15c-1.26-4.59,1.12-10.57,4.08-11.91a2.54,2.54,0,0,1,.46-.17h0c2.28-.6,3.56,4,4.33,7.62A23.21,23.21,0,0,1,253.7,328.91Z" style="fill:#fff"></path></g><path d="M235.45,260.19c-.53,4.63-3.27,18.69-7.11,27.5,0-.2-.07-.4-.1-.59l-.68-4.62-2.67-18.07s5.66,2.67,7.79-.16C233.67,262.94,234.59,261.57,235.45,260.19Z" style="opacity:0.2;isolation:isolate"></path><path d="M243.51,238.13a4.8,4.8,0,0,1-.22,1.84c-.18.55-.37,1.09-.56,1.64-.36,1-.74,2-1.13,3.07-.61,1.57-1.24,3.11-1.88,4.6-.5,1.18-1,2.33-1.5,3.41h0c-.11.22-.21.44-.31.66a1.11,1.11,0,0,0-.07.16l-1.08,2.26s0,0,0,0l-.66,1.34c-.84,1.66-1.55,3-2.05,3.78l-.17.29a3.77,3.77,0,0,1-.44.59c-1.23,1.15-5.19,1.55-5.19,1.55-.05-.45-.11-.9-.18-1.34-.09-.61-.2-1.21-.34-1.8-.05-.26-.11-.51-.18-.76a.42.42,0,0,0,0-.16c-.08-.35-.17-.7-.28-1a3.66,3.66,0,0,0-.13-.44c-.07-.24-.14-.47-.22-.7s-.24-.71-.38-1.06a6.37,6.37,0,0,0-.23-.61c-.09-.25-.19-.49-.3-.73s-.18-.43-.28-.65-.21-.47-.32-.7l0-.06q-.26-.56-.54-1.08c-.1-.19-.2-.38-.31-.57s-.29-.54-.45-.81a39.13,39.13,0,0,0-2.56-3.86c-.18-.24-.36-.48-.56-.72a40,40,0,0,0-4.14-4.49L216,241l-.81-.69c-.26-.22-.52-.44-.79-.65h0l-.8-.62-.79-.57L212,238l-.87-.56-.64-.37-.76-.43-.72-.36c-.23-.12-.46-.22-.69-.32s-.44-.2-.66-.28a1.38,1.38,0,0,1-.87-1.59c.14-.61.3-1.29.49-2,0-.16.09-.33.13-.5.2-.75.42-1.55.66-2.37,0-.15.09-.31.13-.47s0-.1,0-.15c.12-.41.24-.83.37-1.24s.27-.93.41-1.39l.15-.48c.13-.43.25-.85.38-1.27s.25-.82.37-1.22l.68-2.23c.05-.16.09-.32.14-.47h.14c2.51,3.26,7.66,9,14.08,11.29l12.25-.29a24.79,24.79,0,0,0,5.14-8.27l.09,1.09h0l.57,7.25h0l.14,1.84Z" style="fill:#BA68C8"></path><path d="M227.12,404.91h-5.55S207.41,360.12,209,335.23a2.57,2.57,0,0,1,2.43-2.4l1-.05a9,9,0,0,0,3.7,3.7c.16.07.33.14.51.2a4.9,4.9,0,0,0,1.61.27,4.31,4.31,0,0,0,1.55-.3c2.59-1,3.7-4.49,3.7-4.49h.37a1.49,1.49,0,0,1,1.48,1.58l.08,3.05v.5l.07,2.76,0,.5.09,3.62v.5l.44,16.9v.54Z" style="fill:#BA68C8"></path><path d="M228.39,287.93c0-.05,0-.12,0-.19a.13.13,0,0,0,0-.06c0-.15-.06-.35-.1-.58l-1.12,17.67,0,.58-1,16a2.41,2.41,0,0,1-2,2.23l-1.62.29c-.39-3.95-.46-6.87-4.31-7.14a7.75,7.75,0,0,0-.83,0l-.49.05c-5.06.74-4.83,8.15-4.83,8.15h-2.22a3,3,0,0,1-2.92-2.36,221.89,221.89,0,0,1-4.86-45v-.51c0-1.43,0-2.88,0-4.34,0-.17,0-.34,0-.51,0-1.49.08-3,.15-4.51,0-.17,0-.34,0-.5.1-2,.22-3.95.38-6,0-.17,0-.34,0-.51a177.93,177.93,0,0,1,3.18-22.29,1.11,1.11,0,0,1,1.55-.77A30.24,30.24,0,0,1,221,249.57c.17.26.32.51.48.77l.85,1.45c.43.8.84,1.58,1.21,2.35.12.25.24.49.35.74.23.49.44,1,.64,1.43.11.25.22.5.31.74l.28.7c.13.32.25.64.37.94l.32.88c.14.4.28.78.39,1.14.24.71.42,1.32.56,1.79,0,.13.07.24.1.35s.08.31.12.42l.08.34,0,1.58.16,7.29s1.1,11.59,1.24,14.84C228.53,288.11,228.51,288.4,228.39,287.93Z" style="fill:#BA68C8"></path><path d="M222.2,328.17c0,3.86-1.33,6.56-2.54,7.49a1.42,1.42,0,0,1-.48.28h0a1.14,1.14,0,0,1-.42.09,6,6,0,0,1-2.24-.54l-.51-.27c-1.56-.93-3.17-2.88-3.32-6.93-.23-6.44,1.52-9.93,4.25-10.47a2.63,2.63,0,0,1,.49-.07h.11C220.55,317.61,222.2,323.3,222.2,328.17Z" style="fill:#BA68C8"></path><g style="opacity:0.6000000000000001"><path d="M243.51,238.13a4.8,4.8,0,0,1-.22,1.84c-.18.55-.37,1.09-.56,1.64-.36,1-.74,2-1.13,3.07-.61,1.57-1.24,3.11-1.88,4.6-.5,1.18-1,2.33-1.5,3.41h0c-.11.22-.21.44-.31.66a1.11,1.11,0,0,0-.07.16l-1.08,2.26s0,0,0,0c-.23.47-.46.92-.66,1.34-.84,1.66-1.55,3-2.05,3.78l-.17.29a3.77,3.77,0,0,1-.44.59c-1.23,1.15-5.19,1.55-5.19,1.55-.05-.45-.11-.89-.18-1.34-.09-.61-.2-1.21-.34-1.8-.05-.26-.11-.51-.18-.76a.42.42,0,0,0,0-.16c-.08-.35-.17-.7-.28-1a3.66,3.66,0,0,0-.13-.44c-.07-.24-.14-.47-.22-.7s-.24-.71-.38-1.06-.14-.41-.23-.61-.19-.49-.3-.73-.18-.43-.28-.65-.21-.47-.32-.7l0-.06q-.26-.54-.54-1.08c-.1-.19-.2-.38-.31-.57s-.29-.55-.45-.81a39.13,39.13,0,0,0-2.56-3.86c-.19-.25-.37-.49-.56-.72a40,40,0,0,0-4.14-4.49c-.27-.26-.54-.5-.81-.74l-.81-.69c-.26-.23-.52-.44-.79-.65h0c-.27-.22-.53-.42-.8-.62l-.79-.57L212,238l-.87-.56-.64-.37-.76-.43-.72-.36a7.09,7.09,0,0,0-.69-.32c-.22-.1-.44-.2-.66-.28a1.38,1.38,0,0,1-.87-1.59c.14-.61.3-1.29.49-2,0-.16.09-.33.13-.5.2-.75.42-1.55.66-2.37,0-.15.09-.31.13-.47s0-.1,0-.15c.12-.41.24-.83.37-1.24s.27-.93.41-1.39l.15-.48c.13-.43.25-.85.38-1.27s.25-.82.37-1.22l.68-2.23c.05-.16.09-.32.14-.47h.14c2.51,3.26,7.66,9,14.08,11.29l12.25-.29a24.79,24.79,0,0,0,5.14-8.27l.09,1.09h0l.57,7.25h0l.14,1.84Z" style="fill:#fff"></path><path d="M227.12,404.91h-5.55S207.41,360.12,209,335.23a2.57,2.57,0,0,1,2.43-2.4l1-.05a9,9,0,0,0,3.7,3.7c.16.07.33.14.51.2a4.9,4.9,0,0,0,1.61.27,4.31,4.31,0,0,0,1.55-.3c2.59-1,3.7-4.49,3.7-4.49h.37a1.49,1.49,0,0,1,1.48,1.58l.08,3.05v.5l.07,2.76,0,.5.09,3.62v.5l.44,16.9v.54Z" style="fill:#fff"></path><path d="M228.39,287.93c0-.05,0-.12,0-.19a.13.13,0,0,0,0-.06c0-.15-.06-.35-.1-.58l-1.12,17.67,0,.58-1,16a2.41,2.41,0,0,1-2,2.23l-1.62.29c-.39-3.95-.46-6.87-4.31-7.14a7.75,7.75,0,0,0-.83,0l-.49.05c-5.06.74-4.83,8.15-4.83,8.15h-2.22a3,3,0,0,1-2.92-2.36,221.89,221.89,0,0,1-4.86-45v-.51c0-1.43,0-2.88,0-4.34,0-.17,0-.34,0-.51,0-1.49.08-3,.15-4.51,0-.17,0-.34,0-.5.1-2,.22-3.95.38-6,0-.17,0-.34,0-.51a177.93,177.93,0,0,1,3.18-22.29,1.11,1.11,0,0,1,1.55-.77A30.24,30.24,0,0,1,221,249.57c.17.26.32.51.48.77l.85,1.45c.43.8.84,1.58,1.21,2.35.12.25.24.49.35.74.23.49.44,1,.64,1.43.11.25.22.5.31.74l.28.7c.13.32.25.64.37.94l.32.88c.14.4.28.78.39,1.14.24.71.42,1.32.56,1.79,0,.13.07.24.1.35l.12.42.08.34,0,1.58.16,7.29s1.1,11.59,1.24,14.84C228.53,288.11,228.51,288.4,228.39,287.93Z" style="fill:#fff"></path><path d="M222.2,328.17c0,3.86-1.33,6.56-2.54,7.49a1.42,1.42,0,0,1-.48.28h0a1.14,1.14,0,0,1-.42.09,6,6,0,0,1-2.24-.54l-.51-.27c-1.56-.93-3.17-2.88-3.32-6.93-.23-6.44,1.52-9.93,4.25-10.47a2.63,2.63,0,0,1,.49-.07h.11C220.55,317.61,222.2,323.3,222.2,328.17Z" style="fill:#fff"></path></g><path d="M237.29,231.73l-5.17.12c.9,6.23.83,16.67.81,18.43l4.4-.17.89,2.58h0c-.11.22-.21.44-.31.66l-.93-2.73-10.45.4-.85,3c-.1-.24-.21-.47-.32-.7l.79-2.81,6.28-.25c0-1.68.1-12.23-.81-18.44l-6.77.16h0a25.57,25.57,0,0,1-7.42-4.29l.17.27a66.21,66.21,0,0,0-5.92,5.46l-.09.09-.13,0a11.59,11.59,0,0,1-4.17-1.5c0-.16.09-.33.13-.5a11.44,11.44,0,0,0,4,1.49,65.26,65.26,0,0,1,5.88-5.41,44,44,0,0,1-6.68-6.9c.05-.16.09-.32.14-.47h.14c2.51,3.26,7.66,9,14.08,11.29l12.25-.29a24.79,24.79,0,0,0,5.14-8.27l.09,1.09h0a32.8,32.8,0,0,1-1.72,3.38,14.15,14.15,0,0,1,2.29,3.87h0l.14,1.84a16,16,0,0,0-2.7-5.27,19,19,0,0,1-3,3.77l-.07.06Z" style="fill:#BA68C8"></path><path d="M213.28,228.06l-.39.31a10.59,10.59,0,0,0-3.9-2.47l.15-.48A11,11,0,0,1,213.28,228.06Z" style="fill:#BA68C8"></path><path d="M211.59,230.32l-.26.42a19.68,19.68,0,0,0-3.29-1.59c0-.15.09-.31.13-.47A18.38,18.38,0,0,1,211.59,230.32Z" style="fill:#BA68C8"></path><g style="opacity:0.4"><path d="M237.29,231.73l-5.17.12c.9,6.23.83,16.67.81,18.43l4.4-.17.89,2.58h0c-.11.22-.21.44-.31.66l-.93-2.73-10.45.4-.85,3c-.1-.24-.21-.47-.32-.7l.79-2.81,6.28-.25c0-1.68.1-12.23-.81-18.44l-6.77.16h0a25.57,25.57,0,0,1-7.42-4.29l.17.27a66.21,66.21,0,0,0-5.92,5.46l-.09.09-.13,0a11.59,11.59,0,0,1-4.17-1.5c0-.16.09-.33.13-.5a11.44,11.44,0,0,0,4,1.49,65.26,65.26,0,0,1,5.88-5.41,44,44,0,0,1-6.68-6.9c.05-.16.09-.32.14-.47h.14c2.51,3.26,7.66,9,14.08,11.29l12.25-.29a24.79,24.79,0,0,0,5.14-8.27l.09,1.09h0a32.8,32.8,0,0,1-1.72,3.38,14.15,14.15,0,0,1,2.29,3.87h0l.14,1.84a16,16,0,0,0-2.7-5.27,19,19,0,0,1-3,3.77l-.07.06Z" style="fill:#fff"></path><path d="M213.28,228.06l-.39.31a10.59,10.59,0,0,0-3.9-2.47l.15-.48A11,11,0,0,1,213.28,228.06Z" style="fill:#fff"></path><path d="M211.59,230.32l-.26.42a19.68,19.68,0,0,0-3.29-1.59c0-.15.09-.31.13-.47A18.38,18.38,0,0,1,211.59,230.32Z" style="fill:#fff"></path></g><path d="M241.4,232.94a1.44,1.44,0,0,0-2.83.31Z" style="fill:#fff"></path><path d="M241.45,233.44l-2.82.3a1.44,1.44,0,0,0,2.82-.3Z" style="fill:#fff"></path><path d="M218.85,231.16a1.44,1.44,0,0,0-2.31,1.65Z" style="fill:#fff"></path><path d="M219.14,231.56l-2.31,1.65a1.44,1.44,0,0,0,2.31-1.65Z" style="fill:#fff"></path><path d="M252.82,352.86l0,.09a20.9,20.9,0,0,1-5.12,6.09l-.18-.52a20.31,20.31,0,0,0,4.81-5.73c-.33-1.18-3.36-12.15-5-21.66a5.85,5.85,0,0,0,.61.61c1.72,9.81,4.84,20.88,4.87,21Z" style="fill:#BA68C8"></path><path d="M269,400.28l-.49.09c-5-24.65-11.89-56-14.83-69.12a5,5,0,0,0,.33-.85C256.85,343.07,264,375.14,269,400.28Z" style="fill:#BA68C8"></path><path d="M223.88,400.82l-.48.12c-4.9-19.2-6.8-52.62-7.34-64.46.16.07.33.14.51.2C217.12,348.69,219,381.78,223.88,400.82Z" style="fill:#BA68C8"></path><path d="M226,362.11a25.8,25.8,0,0,1-5-2.2l-.11-.07v-.13l-1.69-22.9a4,4,0,0,0,.49-.16l1.69,22.89a25.43,25.43,0,0,0,4.58,2Z" style="fill:#BA68C8"></path><path d="M227.12,304.77l0,.58c-4-2.64-9.66-2.41-10.83-2.33.21,4.81.54,9.52,1.06,13.73l-.49.05c-2.34-19.24-1-48.91-.94-51-3.06-2.74-9.21-4-13.29-4.54,0-.17,0-.34,0-.51,4.17.55,10.5,1.83,13.68,4.76l.08.08v.11c0,.26-.91,19.15-.16,36.85C217.48,302.42,223,302.19,227.12,304.77Z" style="fill:#BA68C8"></path><path d="M249.34,311.56a4.6,4.6,0,0,0-.5.13c-.22-4.16-.54-8.24-.91-12.16-1.67.36-10.73,2.37-15.34,5.66l-.15-.5h0c4.82-3.37,13.84-5.33,15.44-5.65a334.61,334.61,0,0,0-5.41-35.63l0-.13.09-.09a21.48,21.48,0,0,1,4.31-3c0,.17.07.35.11.52a22.34,22.34,0,0,0-4,2.73A335,335,0,0,1,249.34,311.56Z" style="fill:#BA68C8"></path><path d="M244.55,334.14c-1.15.27-2.79.82-4.11,1.29,0-.17-.08-.34-.11-.5a42.85,42.85,0,0,1,4.11-1.27Z" style="fill:#BA68C8"></path><path d="M245.16,337.32c-1.26.5-2.75,1.12-3.86,1.59,0-.17-.08-.34-.13-.5,1.11-.46,2.56-1.07,3.8-1.56Z" style="fill:#BA68C8"></path><path d="M245.71,340.52l-3.44,1.85c-.06-.17-.1-.33-.15-.49l3.35-1.8Z" style="fill:#BA68C8"></path><polygon points="225.37 337.29 223.65 337.33 223.63 336.83 225.36 336.79 225.37 337.29" style="fill:#BA68C8"></polygon><polygon points="225.46 340.55 223.64 340.55 223.64 340.05 225.44 340.05 225.46 340.55" style="fill:#BA68C8"></polygon><polygon points="225.56 344.67 223.79 344.42 223.86 343.93 225.55 344.17 225.56 344.67" style="fill:#BA68C8"></polygon><path d="M210,267.78l-.06.5c-2.71-.3-5.59-.48-7.77-.59,0-.17,0-.34,0-.5C204.4,267.3,207.29,267.48,210,267.78Z" style="fill:#BA68C8"></path><path d="M208.86,272.07l0,.5a53.42,53.42,0,0,0-6.79.14c0-.17,0-.34,0-.51A53.82,53.82,0,0,1,208.86,272.07Z" style="fill:#BA68C8"></path><path d="M208.84,276.5v.5c-1.31,0-4.41.3-6.85.56v-.51C204.43,276.79,207.51,276.5,208.84,276.5Z" style="fill:#BA68C8"></path><path d="M247.86,265.47l-1.68.43-.12-.48,1.71-.44Z" style="fill:#BA68C8"></path><path d="M248.7,270l-1.9.49-.13-.48,1.94-.5Z" style="fill:#BA68C8"></path><path d="M249.48,274.42l-1.81.22-.06-.49,1.78-.22Z" style="fill:#BA68C8"></path><g style="opacity:0.4"><path d="M252.82,352.86l0,.09a20.9,20.9,0,0,1-5.12,6.09l-.18-.52a20.31,20.31,0,0,0,4.81-5.73c-.33-1.18-3.36-12.15-5-21.66a5.85,5.85,0,0,0,.61.61c1.72,9.81,4.84,20.88,4.87,21Z" style="fill:#fff"></path><path d="M269,400.28l-.49.09c-5-24.65-11.89-56-14.83-69.12a5,5,0,0,0,.33-.85C256.85,343.07,264,375.14,269,400.28Z" style="fill:#fff"></path><path d="M223.88,400.82l-.48.12c-4.9-19.2-6.8-52.62-7.34-64.46.16.07.33.14.51.2C217.12,348.69,219,381.78,223.88,400.82Z" style="fill:#fff"></path><path d="M226,362.11a25.8,25.8,0,0,1-5-2.2l-.11-.07v-.13l-1.69-22.9a4,4,0,0,0,.49-.16l1.69,22.89a25.43,25.43,0,0,0,4.58,2Z" style="fill:#fff"></path><path d="M227.12,304.77l0,.58c-4-2.64-9.66-2.41-10.83-2.33.21,4.81.54,9.52,1.06,13.73l-.49.05c-2.34-19.24-1-48.91-.94-51-3.06-2.74-9.21-4-13.29-4.54,0-.17,0-.34,0-.51,4.17.55,10.5,1.83,13.68,4.76l.08.08v.11c0,.26-.91,19.15-.16,36.85C217.48,302.42,223,302.19,227.12,304.77Z" style="fill:#fff"></path><path d="M249.34,311.56a4.6,4.6,0,0,0-.5.13c-.22-4.16-.54-8.24-.91-12.16-1.67.36-10.73,2.37-15.34,5.66l-.15-.5h0c4.82-3.37,13.84-5.33,15.44-5.65a334.61,334.61,0,0,0-5.41-35.63l0-.13.09-.09a21.48,21.48,0,0,1,4.31-3c0,.17.07.35.11.52a22.34,22.34,0,0,0-4,2.73A335,335,0,0,1,249.34,311.56Z" style="fill:#fff"></path><path d="M244.55,334.14c-1.15.27-2.79.82-4.11,1.29,0-.17-.08-.34-.11-.5a42.85,42.85,0,0,1,4.11-1.27Z" style="fill:#fff"></path><path d="M245.16,337.32c-1.26.5-2.75,1.12-3.86,1.59,0-.17-.08-.34-.13-.5,1.11-.46,2.56-1.07,3.8-1.56Z" style="fill:#fff"></path><path d="M245.71,340.52l-3.44,1.85c-.06-.17-.1-.33-.15-.49l3.35-1.8Z" style="fill:#fff"></path><polygon points="225.37 337.29 223.65 337.33 223.63 336.83 225.36 336.79 225.37 337.29" style="fill:#fff"></polygon><polygon points="225.46 340.55 223.64 340.55 223.64 340.05 225.44 340.05 225.46 340.55" style="fill:#fff"></polygon><polygon points="225.56 344.67 223.79 344.42 223.86 343.93 225.55 344.17 225.56 344.67" style="fill:#fff"></polygon><path d="M210,267.78l-.06.5c-2.71-.3-5.59-.48-7.77-.59,0-.17,0-.34,0-.5C204.4,267.3,207.29,267.48,210,267.78Z" style="fill:#fff"></path><path d="M208.86,272.07l0,.5a53.42,53.42,0,0,0-6.79.14c0-.17,0-.34,0-.51A53.82,53.82,0,0,1,208.86,272.07Z" style="fill:#fff"></path><path d="M208.84,276.5v.5c-1.31,0-4.41.3-6.85.56v-.51C204.43,276.79,207.51,276.5,208.84,276.5Z" style="fill:#fff"></path><path d="M247.86,265.47l-1.68.43-.12-.48,1.71-.44Z" style="fill:#fff"></path><path d="M248.7,270l-1.9.49-.13-.48,1.94-.5Z" style="fill:#fff"></path><path d="M249.48,274.42l-1.81.22-.06-.49,1.78-.22Z" style="fill:#fff"></path></g><path d="M207.13,256a1.42,1.42,0,0,0-1.84-.18,1.45,1.45,0,0,0-.5,1.79Z" style="fill:#fff"></path><path d="M207.42,256.36,205.08,258a1.44,1.44,0,0,0,2.34-1.61Z" style="fill:#fff"></path><path d="M219,314.73a1.44,1.44,0,0,0,.95-2.68Z" style="fill:#fff"></path><path d="M218.53,314.57l.95-2.68a1.44,1.44,0,0,0-.95,2.68Z" style="fill:#fff"></path><path d="M218.23,325.88a1.43,1.43,0,0,0-1.84.21,1.45,1.45,0,0,0-.12,1.85Z" style="fill:#fff"></path><path d="M218.59,326.23l-2,2.06a1.44,1.44,0,0,0,2-2.06Z" style="fill:#fff"></path><path d="M246.37,310.77a1.44,1.44,0,0,0-2.08-1.92Z" style="fill:#fff"></path><path d="M246,311.14,244,309.22a1.44,1.44,0,0,0,2.08,1.92Z" style="fill:#fff"></path><path d="M251.18,320.86a1.44,1.44,0,0,0-1,2.66Z" style="fill:#fff"></path><path d="M251.64,321l-1,2.66a1.44,1.44,0,0,0,1-2.66Z" style="fill:#fff"></path><path d="M224.53,356.19a1.44,1.44,0,0,0-1.7,2.27Z" style="fill:#fff"></path><path d="M224.93,356.49l-1.7,2.27a1.45,1.45,0,0,0,1.81-.41A1.46,1.46,0,0,0,224.93,356.49Z" style="fill:#fff"></path><path d="M250,353a1.44,1.44,0,0,0-2.7-.88Z" style="fill:#fff"></path><path d="M249.82,353.51l-2.7-.88a1.44,1.44,0,0,0,2.7.88Z" style="fill:#fff"></path><path d="M282,414.3c-1.2-.32-3.1-2.52-4.86-4.9-1.91-3.63-5.85-14.16-5.85-14.16a4.85,4.85,0,0,0-5.3.28v4l-2.63,2.89.34,1.81c-2.77,5.65,0,13.67,0,13.67h2.65l.72-4,3.34,4h13.76A3,3,0,0,0,282,414.3Z" style="fill:#BA68C8"></path><path d="M284.22,417.86H270.46l-3.34-4-.72,4h-2.65a23.81,23.81,0,0,1-.76-2.93c0-.16-.06-.32-.09-.49-.49-2.8-.77-6.82.76-10.08l.08-.17-.06-.34-.28-1.47,2.52-2.77.11-.12v-4a4.85,4.85,0,0,1,5.3-.28l.15.39c.45,1.21,1.89,5,3.32,8.46l.21.5c.8,1.92,1.58,3.69,2.17,4.81a28.6,28.6,0,0,0,3.41,4,5.77,5.77,0,0,0,.68.53,2.66,2.66,0,0,0,.77.39A3,3,0,0,1,284.22,417.86Z" style="fill:#fff;opacity:0.6000000000000001"></path><path d="M280.59,413.38a63.19,63.19,0,0,0-10,.3l-2.26-2.92a5.44,5.44,0,0,0,1.11-3.5,6.94,6.94,0,0,0-.14-1.32c.35-.31,1.93-1.47,5.73-1.35l-.21-.5c-3.36-.07-5,.83-5.65,1.31-.43-1.48-1.35-2.48-2.46-2.48l-.15,0-.25-7.3c.41-.33,2.27-1.56,5.19,0l-.15-.39a4.85,4.85,0,0,0-5.3.28v4l-.11.12.12,3.44a2.53,2.53,0,0,0-1.19,1l-1.17-.21.06.34-.08.17.92.16a6,6,0,0,0-.61,2.74,5,5,0,0,0,1.47,3.85l-.68,3-1.86.32c0,.17.07.33.09.49l2.18-.37.72-3.16a1.89,1.89,0,0,0,.8.2,2,2,0,0,0,1.25-.49l2.41,3.1.14,0a61.88,61.88,0,0,1,10.78-.28A5.77,5.77,0,0,1,280.59,413.38Zm-13.9-2.28c-1.22,0-2.22-1.72-2.22-3.84s1-3.84,2.22-3.84,2.23,1.72,2.23,3.84S267.92,411.1,266.69,411.1Z" style="fill:#BA68C8"></path><path d="M280.59,413.38a63.19,63.19,0,0,0-10,.3l-2.26-2.92a5.44,5.44,0,0,0,1.11-3.5,6.94,6.94,0,0,0-.14-1.32c.35-.31,1.93-1.47,5.73-1.35l-.21-.5c-3.36-.07-5,.83-5.65,1.31-.43-1.48-1.35-2.48-2.46-2.48l-.15,0-.25-7.3c.41-.33,2.27-1.56,5.19,0l-.15-.39a4.85,4.85,0,0,0-5.3.28v4l-.11.12.12,3.44a2.53,2.53,0,0,0-1.19,1l-1.17-.21.06.34-.08.17.92.16a6,6,0,0,0-.61,2.74,5,5,0,0,0,1.47,3.85l-.68,3-1.86.32c0,.17.07.33.09.49l2.18-.37.72-3.16a1.89,1.89,0,0,0,.8.2,2,2,0,0,0,1.25-.49l2.41,3.1.14,0a61.88,61.88,0,0,1,10.78-.28A5.77,5.77,0,0,1,280.59,413.38Zm-13.9-2.28c-1.22,0-2.22-1.72-2.22-3.84s1-3.84,2.22-3.84,2.23,1.72,2.23,3.84S267.92,411.1,266.69,411.1Z" style="fill:#fff;opacity:0.4"></path><path d="M238,414.3c-1.21-.32-3.11-2.52-4.86-4.9-1.91-3.63-5.85-14.16-5.85-14.16a4.85,4.85,0,0,0-5.3.28v4l-2.63,2.89.34,1.81c-2.77,5.65,0,13.67,0,13.67h2.64l.73-4,3.33,4h13.76A3,3,0,0,0,238,414.3Z" style="fill:#BA68C8"></path><path d="M240.22,417.86H226.46l-3.34-4-.72,4h-2.65a23.81,23.81,0,0,1-.76-2.93c0-.16-.06-.32-.09-.49-.49-2.8-.77-6.82.76-10.08l.08-.17-.06-.34-.28-1.47,2.52-2.77.11-.12v-4a4.85,4.85,0,0,1,5.3-.28l.15.39c.45,1.21,1.89,5,3.32,8.46l.21.5c.8,1.92,1.58,3.69,2.17,4.81a28.6,28.6,0,0,0,3.41,4,5.77,5.77,0,0,0,.68.53,2.66,2.66,0,0,0,.77.39A3,3,0,0,1,240.22,417.86Z" style="fill:#fff;opacity:0.6000000000000001"></path><path d="M236.59,413.38a63.19,63.19,0,0,0-10,.3l-2.26-2.92a5.44,5.44,0,0,0,1.11-3.5,6.94,6.94,0,0,0-.14-1.32c.35-.31,1.93-1.47,5.73-1.35l-.21-.5c-3.36-.07-5,.83-5.65,1.31-.43-1.48-1.35-2.48-2.46-2.48l-.15,0-.25-7.3c.41-.33,2.27-1.56,5.19,0l-.15-.39a4.85,4.85,0,0,0-5.3.28v4l-.11.12.12,3.44a2.53,2.53,0,0,0-1.19,1l-1.17-.21.06.34-.08.17.92.16a6,6,0,0,0-.61,2.74,5,5,0,0,0,1.47,3.85l-.68,3-1.86.32c0,.17.07.33.09.49l2.18-.37.72-3.16a1.89,1.89,0,0,0,.8.2,2,2,0,0,0,1.25-.49l2.41,3.1.14,0a61.88,61.88,0,0,1,10.78-.28A5.77,5.77,0,0,1,236.59,413.38Zm-13.9-2.28c-1.22,0-2.22-1.72-2.22-3.84s1-3.84,2.22-3.84,2.23,1.72,2.23,3.84S223.92,411.1,222.69,411.1Z" style="fill:#BA68C8"></path><path d="M236.59,413.38a63.19,63.19,0,0,0-10,.3l-2.26-2.92a5.44,5.44,0,0,0,1.11-3.5,6.94,6.94,0,0,0-.14-1.32c.35-.31,1.93-1.47,5.73-1.35l-.21-.5c-3.36-.07-5,.83-5.65,1.31-.43-1.48-1.35-2.48-2.46-2.48l-.15,0-.25-7.3c.41-.33,2.27-1.56,5.19,0l-.15-.39a4.85,4.85,0,0,0-5.3.28v4l-.11.12.12,3.44a2.53,2.53,0,0,0-1.19,1l-1.17-.21.06.34-.08.17.92.16a6,6,0,0,0-.61,2.74,5,5,0,0,0,1.47,3.85l-.68,3-1.86.32c0,.17.07.33.09.49l2.18-.37.72-3.16a1.89,1.89,0,0,0,.8.2,2,2,0,0,0,1.25-.49l2.41,3.1.14,0a61.88,61.88,0,0,1,10.78-.28A5.77,5.77,0,0,1,236.59,413.38Zm-13.9-2.28c-1.22,0-2.22-1.72-2.22-3.84s1-3.84,2.22-3.84,2.23,1.72,2.23,3.84S223.92,411.1,222.69,411.1Z" style="fill:#fff;opacity:0.4"></path></g><g id="freepik--Interface--inject-55"><path d="M301.38,172.35c0,.27,0,.54,0,.8a52.63,52.63,0,0,0,3,17.69l2.87-2.41a45.54,45.54,0,0,1-2.57-15.28c0-.23,0-.46,0-.7Z" style="fill:#BA68C8"></path><path d="M325.07,209.92l.07-5h-.09c-6.18-.21-11.94-4.54-15.81-11.88l-2.55,3.13c4.47,8.5,11.14,13.51,18.29,13.75Z" style="fill:#BA68C8"></path><path d="M315.46,145.28l-1.58-4.38a26.27,26.27,0,0,0-3.49,3.57l2.05,3.9A23.31,23.31,0,0,1,315.46,145.28Z" style="fill:#BA68C8"></path><path d="M335.61,201l1.59,4.38a27.53,27.53,0,0,0,3.48-3.58l-2.06-3.89A23.25,23.25,0,0,1,335.61,201Z" style="fill:#BA68C8"></path><path d="M343.79,157.79a45.55,45.55,0,0,1,2.59,15.33c0,.21,0,.42,0,.64l3.28.08c0-.24,0-.48,0-.72a52.7,52.7,0,0,0-3-17.75Z" style="fill:#BA68C8"></path><path d="M326.05,136.36,326,138l0,3.32c6.16.21,11.91,4.52,15.78,11.83l2.55-3.14C339.83,141.6,333.18,136.6,326.05,136.36Z" style="fill:#BA68C8"></path><ellipse cx="325.52" cy="173.14" rx="16.06" ry="24.48" style="fill:#BA68C8"></ellipse><path d="M355.83,164.66a59.26,59.26,0,0,0-7.38-22.88l-1.46,2a55.56,55.56,0,0,1,6.9,21.42Z" style="fill:#BA68C8"></path><path d="M321.2,129.67l-.3-3a24.16,24.16,0,0,0-9.62,4.78l.91,2.66A22.69,22.69,0,0,1,321.2,129.67Z" style="fill:#BA68C8"></path><path d="M356.25,169.78l-2,.21c0,1,.07,2.08.07,3.13v1a66.54,66.54,0,0,1-.95,10.25l1.91.76a70.4,70.4,0,0,0,1-10.94c0-.36,0-.72,0-1.07C356.33,172,356.31,170.88,356.25,169.78Z" style="fill:#BA68C8"></path><path d="M340.55,132.14a28.91,28.91,0,0,0-3-2.27l-.77,2.76a26.72,26.72,0,0,1,2.85,2.13Z" style="fill:#BA68C8"></path><path d="M309.46,136.61l-1.09-2.49c-4.73,4.83-8.49,11.54-10.86,19.4l1.79,1.25A44.29,44.29,0,0,1,309.46,136.61Z" style="fill:#BA68C8"></path><path d="M294.71,172.08c0,.36,0,.72,0,1.08v.39l2,0v-1.38c0-1.15.07-2.31.14-3.45l-2-.3C294.77,169.62,294.72,170.86,294.71,172.08Z" style="fill:#BA68C8"></path><path d="M301.05,196.44,299.38,198a46.63,46.63,0,0,0,6.7,11.55l1.25-2.32A43.47,43.47,0,0,1,301.05,196.44Z" style="fill:#BA68C8"></path><path d="M324.87,217.08c-5.34-.18-10.52-2.6-15-7l-1.07,2.53c4.77,4.68,10.3,7.26,16,7.46h.71a21.29,21.29,0,0,0,9.77-2.42l-.63-2.84A20,20,0,0,1,324.87,217.08Z" style="fill:#BA68C8"></path><path d="M343,208.06l1.19,2.38a36.71,36.71,0,0,0,2.57-3.36l-1.36-2.17A38.9,38.9,0,0,1,343,208.06Z" style="fill:#BA68C8"></path><g style="opacity:0.6000000000000001"><path d="M355.83,164.66a59.26,59.26,0,0,0-7.38-22.88l-1.46,2a55.56,55.56,0,0,1,6.9,21.42Z" style="fill:#fff"></path><path d="M321.2,129.67l-.3-3a24.16,24.16,0,0,0-9.62,4.78l.91,2.66A22.69,22.69,0,0,1,321.2,129.67Z" style="fill:#fff"></path><path d="M356.25,169.78l-2,.21c0,1,.07,2.08.07,3.13v1a66.54,66.54,0,0,1-.95,10.25l1.91.76a70.4,70.4,0,0,0,1-10.94c0-.36,0-.72,0-1.07C356.33,172,356.31,170.88,356.25,169.78Z" style="fill:#fff"></path><path d="M340.55,132.14a28.91,28.91,0,0,0-3-2.27l-.77,2.76a26.72,26.72,0,0,1,2.85,2.13Z" style="fill:#fff"></path><path d="M309.46,136.61l-1.09-2.49c-4.73,4.83-8.49,11.54-10.86,19.4l1.79,1.25A44.29,44.29,0,0,1,309.46,136.61Z" style="fill:#fff"></path><path d="M294.71,172.08c0,.36,0,.72,0,1.08v.39l2,0v-1.38c0-1.15.07-2.31.14-3.45l-2-.3C294.77,169.62,294.72,170.86,294.71,172.08Z" style="fill:#fff"></path><path d="M301.05,196.44,299.38,198a46.63,46.63,0,0,0,6.7,11.55l1.25-2.32A43.47,43.47,0,0,1,301.05,196.44Z" style="fill:#fff"></path><path d="M324.87,217.08c-5.34-.18-10.52-2.6-15-7l-1.07,2.53c4.77,4.68,10.3,7.26,16,7.46h.71a21.29,21.29,0,0,0,9.77-2.42l-.63-2.84A20,20,0,0,1,324.87,217.08Z" style="fill:#fff"></path><path d="M343,208.06l1.19,2.38a36.71,36.71,0,0,0,2.57-3.36l-1.36-2.17A38.9,38.9,0,0,1,343,208.06Z" style="fill:#fff"></path></g><g style="opacity:0.4"><path d="M301.38,172.35c0,.27,0,.54,0,.8a52.63,52.63,0,0,0,3,17.69l2.87-2.41a45.54,45.54,0,0,1-2.57-15.28c0-.23,0-.46,0-.7Z" style="fill:#fff"></path><path d="M325.07,209.92l.07-5h-.09c-6.18-.21-11.94-4.54-15.81-11.88l-2.55,3.13c4.47,8.5,11.14,13.51,18.29,13.75Z" style="fill:#fff"></path><path d="M315.46,145.28l-1.58-4.38a26.27,26.27,0,0,0-3.49,3.57l2.05,3.9A23.31,23.31,0,0,1,315.46,145.28Z" style="fill:#fff"></path><path d="M335.61,201l1.59,4.38a27.53,27.53,0,0,0,3.48-3.58l-2.06-3.89A23.25,23.25,0,0,1,335.61,201Z" style="fill:#fff"></path><path d="M343.79,157.79a45.55,45.55,0,0,1,2.59,15.33c0,.21,0,.42,0,.64l3.28.08c0-.24,0-.48,0-.72a52.7,52.7,0,0,0-3-17.75Z" style="fill:#fff"></path><path d="M326.05,136.36,326,138l0,3.32c6.16.21,11.91,4.52,15.78,11.83l2.55-3.14C339.83,141.6,333.18,136.6,326.05,136.36Z" style="fill:#fff"></path></g><ellipse cx="325.52" cy="173.14" rx="16.06" ry="24.48" style="fill:#fff;opacity:0.2"></ellipse><path d="M126.67,233.93a29,29,0,0,1-2.61-3.92l-2.57,3.21a34.8,34.8,0,0,0,3,4.54Z" style="fill:#BA68C8"></path><path d="M126.72,185.25a19.26,19.26,0,0,1,10-6.93l-.58-4.92a22.29,22.29,0,0,0-11.53,8Z" style="fill:#BA68C8"></path><path d="M144,241l.57,4.92a22.1,22.1,0,0,0,11.54-8L154,234.05A19.22,19.22,0,0,1,144,241Z" style="fill:#BA68C8"></path><path d="M121.54,186c-4.67,8.32-6.64,19.23-5.41,29.93V216l3.29-.92c-1.07-9.25.64-18.67,4.67-25.86Z" style="fill:#BA68C8"></path><path d="M156.63,189.19l2.56-3.22a34.56,34.56,0,0,0-3-4.52L154,185.28A28.34,28.34,0,0,1,156.63,189.19Z" style="fill:#BA68C8"></path><path d="M164.58,203.35l0-.12-3.29.85,0,.15c1.07,9.27-.65,18.71-4.71,25.91l2.56,3.22C163.83,225,165.82,214.11,164.58,203.35Z" style="fill:#BA68C8"></path><ellipse cx="140.36" cy="209.63" rx="16.36" ry="24.48" style="fill:#BA68C8"></ellipse><path d="M135.36,166.31h0a19.91,19.91,0,0,1,6.9-.55l.13-3a21.4,21.4,0,0,0-7.37.6h0a23,23,0,0,0-2.87.95l.52,2.89A24.19,24.19,0,0,1,135.36,166.31Z" style="fill:#BA68C8"></path><path d="M161.16,174.48a37.2,37.2,0,0,0-2.7-3.21l-1.16,2.45a35.44,35.44,0,0,1,2.53,3Z" style="fill:#BA68C8"></path><path d="M112.44,196l-1.91-.94c-.35,1.63-.65,3.31-.89,5l2,.62C111.82,199.05,112.1,197.47,112.44,196Z" style="fill:#BA68C8"></path><path d="M171.28,201.65a63.62,63.62,0,0,0-3.62-15.2l-1.75,1.48a59.33,59.33,0,0,1,3.39,14.23,64.32,64.32,0,0,1-1.65,23.73l1.86,1.12A69,69,0,0,0,171.28,201.65Z" style="fill:#BA68C8"></path><path d="M110.81,225.44a56.33,56.33,0,0,0,5,13.47l1.57-1.87a52.68,52.68,0,0,1-4.69-12.61Z" style="fill:#BA68C8"></path><path d="M160.42,241.74l1.37,2.19a49.82,49.82,0,0,0,6.27-12.24l-1.77-1.41A46.81,46.81,0,0,1,160.42,241.74Z" style="fill:#BA68C8"></path><path d="M143.06,253.4l.19,3a21,21,0,0,0,2.44-.48l1-.27-.41-2.94A20.68,20.68,0,0,1,143.06,253.4Z" style="fill:#BA68C8"></path><path d="M118.12,242.76c4.1,6.15,9.23,10.47,14.85,12.51l.47-2.91c-5.26-1.91-10.06-6-13.9-11.72Z" style="fill:#BA68C8"></path><ellipse cx="140.36" cy="209.63" rx="16.36" ry="24.48" style="fill:#fff;opacity:0.2"></ellipse><g style="opacity:0.4"><path d="M126.67,233.93a29,29,0,0,1-2.61-3.92l-2.57,3.21a34.8,34.8,0,0,0,3,4.54Z" style="fill:#fff"></path><path d="M126.72,185.25a19.26,19.26,0,0,1,10-6.93l-.58-4.92a22.29,22.29,0,0,0-11.53,8Z" style="fill:#fff"></path><path d="M144,241l.57,4.92a22.1,22.1,0,0,0,11.54-8L154,234.05A19.22,19.22,0,0,1,144,241Z" style="fill:#fff"></path><path d="M121.54,186c-4.67,8.32-6.64,19.23-5.41,29.93V216l3.29-.92c-1.07-9.25.64-18.67,4.67-25.86Z" style="fill:#fff"></path><path d="M156.63,189.19l2.56-3.22a34.56,34.56,0,0,0-3-4.52L154,185.28A28.34,28.34,0,0,1,156.63,189.19Z" style="fill:#fff"></path><path d="M164.58,203.35l0-.12-3.29.85,0,.15c1.07,9.27-.65,18.71-4.71,25.91l2.56,3.22C163.83,225,165.82,214.11,164.58,203.35Z" style="fill:#fff"></path></g><g style="opacity:0.6000000000000001"><path d="M135.36,166.31h0a19.91,19.91,0,0,1,6.9-.55l.13-3a21.4,21.4,0,0,0-7.37.6h0a23,23,0,0,0-2.87.95l.52,2.89A24.19,24.19,0,0,1,135.36,166.31Z" style="fill:#fff"></path><path d="M161.16,174.48a37.2,37.2,0,0,0-2.7-3.21l-1.16,2.45a35.44,35.44,0,0,1,2.53,3Z" style="fill:#fff"></path><path d="M112.44,196l-1.91-.94c-.35,1.63-.65,3.31-.89,5l2,.62C111.82,199.05,112.1,197.47,112.44,196Z" style="fill:#fff"></path><path d="M171.28,201.65a63.62,63.62,0,0,0-3.62-15.2l-1.75,1.48a59.33,59.33,0,0,1,3.39,14.23,64.32,64.32,0,0,1-1.65,23.73l1.86,1.12A69,69,0,0,0,171.28,201.65Z" style="fill:#fff"></path><path d="M110.81,225.44a56.33,56.33,0,0,0,5,13.47l1.57-1.87a52.68,52.68,0,0,1-4.69-12.61Z" style="fill:#fff"></path><path d="M160.42,241.74l1.37,2.19a49.82,49.82,0,0,0,6.27-12.24l-1.77-1.41A46.81,46.81,0,0,1,160.42,241.74Z" style="fill:#fff"></path><path d="M143.06,253.4l.19,3a21,21,0,0,0,2.44-.48l1-.27-.41-2.94A20.68,20.68,0,0,1,143.06,253.4Z" style="fill:#fff"></path><path d="M118.12,242.76c4.1,6.15,9.23,10.47,14.85,12.51l.47-2.91c-5.26-1.91-10.06-6-13.9-11.72Z" style="fill:#fff"></path></g><path d="M129.6,168.72l-.73-2.8c-5.37,3.16-10.06,8.49-13.56,15.43l1.6,1.81C120.18,176.66,124.57,171.67,129.6,168.72Z" style="fill:#BA68C8"></path><path d="M129.6,168.72l-.73-2.8c-5.37,3.16-10.06,8.49-13.56,15.43l1.6,1.81C120.18,176.66,124.57,171.67,129.6,168.72Z" style="fill:#fff;opacity:0.6000000000000001"></path></g></svg>