<svg width="323" height="48" viewBox="0 0 323 48" fill="none" xmlns="http://www.w3.org/2000/svg">
<path fill-rule="evenodd" clip-rule="evenodd" d="M0 5.15889C0 2.36923 2.26147 0.107758 5.05113 0.107758H102.706C105.496 0.107758 107.758 2.36923 107.758 5.15889V42.9489C107.758 45.7385 105.496 48 102.706 48H5.05113C2.26147 48 0 45.7385 0 42.9489V5.15889ZM89.1763 33.7287C91.5543 34.5014 94.1773 33.1833 94.2752 30.6849C94.3172 29.6116 94.2543 28.5331 94.0851 27.465C93.6787 24.899 92.6707 22.4656 91.1436 20.3637C89.6166 18.2619 87.6137 16.5513 85.2989 15.3718C82.984 14.1923 80.4229 13.5774 77.8248 13.5774C75.2268 13.5774 72.6657 14.1923 70.3508 15.3718C68.0359 16.5513 66.0331 18.2619 64.506 20.3637C62.9789 22.4656 61.971 24.899 61.5646 27.465C61.3954 28.5331 61.3324 29.6116 61.3745 30.6849C61.4724 33.1833 64.0954 34.5014 66.4734 33.7287L67.4589 33.4085C69.2926 32.8127 70.2061 30.7858 70.5077 28.8815C70.6906 27.7268 71.1442 26.6317 71.8314 25.6859C72.5185 24.7401 73.4198 23.9703 74.4615 23.4395C75.5032 22.9088 76.6557 22.6321 77.8248 22.6321C78.9939 22.6321 80.1465 22.9088 81.1881 23.4395C82.2298 23.9703 83.1311 24.7401 83.8183 25.6859C84.5055 26.6317 84.9591 27.7268 85.142 28.8815C85.4436 30.7858 86.3571 32.8127 88.1908 33.4085L89.1763 33.7287ZM45.6347 30.6849C45.5368 33.1833 42.9138 34.5014 40.5358 33.7287L39.5503 33.4085C37.7166 32.8127 36.8031 30.7858 36.5015 28.8815C36.3186 27.7268 35.865 26.6317 35.1778 25.6859C34.4907 24.7401 33.5894 23.9703 32.5477 23.4395C31.506 22.9088 30.3535 22.6321 29.1844 22.6321C28.0153 22.6321 26.8627 22.9088 25.8211 23.4395C24.7794 23.9703 23.8781 24.7401 23.1909 25.6859C22.5037 26.6317 22.0501 27.7268 21.8673 28.8815C21.5656 30.7858 20.6521 32.8127 18.8184 33.4085L17.8329 33.7287C15.4549 34.5014 12.8319 33.1833 12.734 30.6849C12.692 29.6116 12.7549 28.5331 12.9241 27.465C13.3305 24.899 14.3385 22.4656 15.8656 20.3637C17.3926 18.2619 19.3955 16.5513 21.7104 15.3718C24.0252 14.1923 26.5863 13.5774 29.1844 13.5774C31.7824 13.5774 34.3435 14.1923 36.6584 15.3718C38.9733 16.5513 40.9761 18.2619 42.5032 20.3637C44.0303 22.4656 45.0382 24.899 45.4446 27.465C45.6138 28.5331 45.6768 29.6116 45.6347 30.6849Z" fill="#FAFAFA"/>
<path d="M132.629 2.47842V20.3123H128.265V2.47842H132.629ZM122.608 4.41806V0.377151H138.287V4.41806H122.608Z" fill="#FAFAFA"/>
<path d="M144.538 20.3123H140.39V0H144.565V8.24345C144.978 7.66874 145.544 7.21975 146.263 6.89648C146.999 6.57321 147.807 6.41157 148.687 6.41157C150.285 6.41157 151.525 6.90546 152.405 7.89324C153.303 8.86306 153.752 10.228 153.752 11.988V20.3123H149.603V12.9848C149.603 12.4101 149.504 11.9162 149.307 11.5031C149.109 11.09 148.831 10.7668 148.472 10.5333C148.13 10.2998 147.717 10.1831 147.232 10.1831C146.694 10.1831 146.218 10.2998 145.805 10.5333C145.409 10.7488 145.095 11.0631 144.862 11.4762C144.646 11.8892 144.538 12.3742 144.538 12.9309V20.3123Z" fill="#FAFAFA"/>
<path d="M162.977 20.6625C161.63 20.6625 160.427 20.3572 159.367 19.7466C158.325 19.1359 157.499 18.3008 156.889 17.2412C156.296 16.1636 156 14.9334 156 13.5505C156 12.1497 156.287 10.9194 156.862 9.85981C157.454 8.78224 158.272 7.93814 159.313 7.32751C160.355 6.71689 161.549 6.41157 162.896 6.41157C164.315 6.41157 165.536 6.70791 166.56 7.30057C167.584 7.87528 168.374 8.70142 168.931 9.77899C169.487 10.8386 169.766 12.1048 169.766 13.5774V14.6281L158.182 14.682L158.236 12.1227H165.644C165.644 11.4043 165.401 10.8386 164.917 10.4255C164.432 9.99451 163.767 9.77899 162.923 9.77899C162.223 9.77899 161.648 9.91369 161.199 10.1831C160.768 10.4525 160.445 10.8745 160.229 11.4492C160.014 12.006 159.906 12.7244 159.906 13.6044C159.906 14.8616 160.157 15.7955 160.66 16.4061C161.181 16.9987 161.98 17.2951 163.058 17.2951C163.848 17.2951 164.504 17.1604 165.024 16.891C165.545 16.6216 165.877 16.2444 166.021 15.7595H169.82C169.586 17.2502 168.85 18.4445 167.611 19.3425C166.371 20.2225 164.827 20.6625 162.977 20.6625Z" fill="#FAFAFA"/>
<path d="M126.864 47.2517H122.312L129.424 27.3165H133.68L140.765 47.2517H136.131L134.731 43.0491H128.292L126.864 47.2517ZM130.986 35.129L129.558 39.3854H133.491L132.064 35.129C131.956 34.7877 131.848 34.4375 131.74 34.0783C131.633 33.7191 131.561 33.4228 131.525 33.1893C131.489 33.4228 131.417 33.7191 131.309 34.0783C131.219 34.4195 131.112 34.7698 130.986 35.129Z" fill="#FAFAFA"/>
<path d="M150.833 33.782H154.982V47.2517H151.076L150.806 45.7431C150.393 46.2998 149.8 46.7488 149.028 47.09C148.274 47.4313 147.493 47.6019 146.685 47.6019C145.158 47.6019 143.946 47.126 143.048 46.1741C142.168 45.2043 141.728 43.8932 141.728 42.2409V33.782H145.876V40.7323C145.876 41.8279 146.074 42.6361 146.469 43.1569C146.864 43.6598 147.484 43.9112 148.328 43.9112C149.226 43.9112 149.863 43.6687 150.241 43.1838C150.636 42.681 150.833 41.8818 150.833 40.7862V33.782Z" fill="#FAFAFA"/>
<path d="M156.829 33.782H166.096V37.2302H156.829V33.782ZM163.537 47.2517H159.388V29.6064H163.537V47.2517Z" fill="#FAFAFA"/>
<path d="M167.102 40.4899C167.102 39.0711 167.416 37.8319 168.044 36.7723C168.691 35.6947 169.571 34.8596 170.685 34.2669C171.816 33.6742 173.1 33.3779 174.537 33.3779C175.974 33.3779 177.249 33.6742 178.362 34.2669C179.476 34.8596 180.347 35.6947 180.975 36.7723C181.622 37.8319 181.945 39.0711 181.945 40.4899C181.945 41.9087 181.622 43.1479 180.975 44.2075C180.347 45.2671 179.476 46.0933 178.362 46.6859C177.249 47.2786 175.974 47.5749 174.537 47.5749C173.1 47.5749 171.816 47.2786 170.685 46.6859C169.571 46.0933 168.691 45.2671 168.044 44.2075C167.416 43.1479 167.102 41.9087 167.102 40.4899ZM171.277 40.4629C171.277 41.1454 171.412 41.7471 171.681 42.2679C171.969 42.7708 172.355 43.1659 172.84 43.4532C173.325 43.7226 173.89 43.8573 174.537 43.8573C175.183 43.8573 175.749 43.7226 176.234 43.4532C176.719 43.1659 177.096 42.7708 177.366 42.2679C177.635 41.7471 177.77 41.1454 177.77 40.4629C177.77 39.7805 177.635 39.1878 177.366 38.685C177.096 38.1821 176.719 37.796 176.234 37.5266C175.749 37.2392 175.183 37.0955 174.537 37.0955C173.89 37.0955 173.325 37.2392 172.84 37.5266C172.355 37.796 171.969 38.1821 171.681 38.685C171.412 39.1878 171.277 39.7805 171.277 40.4629Z" fill="#FAFAFA"/>
<path d="M188.499 47.2517H184.35V33.782H188.23L188.688 36.0988L188.257 35.6139C188.526 35.0751 189.011 34.5632 189.711 34.0783C190.412 33.5934 191.319 33.351 192.432 33.351C193.618 33.351 194.569 33.6473 195.288 34.24C196.006 34.8326 196.536 35.6049 196.877 36.5567H196.231C196.446 35.6049 196.967 34.8326 197.793 34.24C198.619 33.6473 199.607 33.351 200.756 33.351C202.499 33.351 203.801 33.8179 204.663 34.7518C205.525 35.6677 205.956 36.898 205.956 38.4425V47.2517H201.807V39.6009C201.807 38.7568 201.601 38.1282 201.188 37.7151C200.792 37.3021 200.263 37.0955 199.598 37.0955C199.203 37.0955 198.826 37.1853 198.467 37.3649C198.107 37.5266 197.811 37.8229 197.578 38.2539C197.344 38.667 197.227 39.2597 197.227 40.0319V47.2517H193.079V39.6009C193.079 38.7568 192.881 38.1372 192.486 37.7421C192.091 37.329 191.561 37.1225 190.897 37.1225C190.502 37.1225 190.115 37.2123 189.738 37.3919C189.379 37.5535 189.083 37.8498 188.849 38.2809C188.616 38.6939 188.499 39.2776 188.499 40.0319V47.2517Z" fill="#FAFAFA"/>
<path d="M212.99 47.6019C211.571 47.6019 210.44 47.2158 209.596 46.4435C208.769 45.6533 208.356 44.6026 208.356 43.2916C208.356 42.0524 208.778 41.0646 209.622 40.3283C210.485 39.5919 211.724 39.1609 213.34 39.0352L217.112 38.7388V38.5233C217.112 38.0743 217.022 37.7062 216.842 37.4188C216.663 37.1135 216.402 36.889 216.061 36.7453C215.738 36.5837 215.325 36.5029 214.822 36.5029C213.942 36.5029 213.268 36.6645 212.801 36.9878C212.352 37.311 212.128 37.778 212.128 38.3886H208.68C208.68 37.3649 208.94 36.4759 209.461 35.7216C209.982 34.9673 210.718 34.3836 211.67 33.9706C212.64 33.5575 213.762 33.351 215.037 33.351C216.348 33.351 217.453 33.5844 218.351 34.0514C219.267 34.5183 219.958 35.2008 220.425 36.0988C220.91 36.9967 221.153 38.0923 221.153 39.3854V47.2517H217.489L217.219 45.4737C217.004 46.0843 216.492 46.5961 215.684 47.0092C214.894 47.4043 213.996 47.6019 212.99 47.6019ZM214.445 44.5308C215.235 44.5308 215.881 44.3422 216.384 43.9651C216.887 43.57 217.139 42.9863 217.139 42.214V41.4866L215.037 41.6752C214.139 41.7471 213.502 41.8997 213.125 42.1332C212.765 42.3487 212.586 42.672 212.586 43.103C212.586 43.5879 212.738 43.9471 213.044 44.1806C213.349 44.4141 213.816 44.5308 214.445 44.5308Z" fill="#FAFAFA"/>
<path d="M222.73 33.782H231.998V37.2302H222.73V33.782ZM229.438 47.2517H225.29V29.6064H229.438V47.2517Z" fill="#FAFAFA"/>
<path d="M233.862 47.2517V33.782H238.011V47.2517H233.862ZM235.909 31.6807C235.245 31.6807 234.679 31.4562 234.212 31.0072C233.763 30.5403 233.539 29.9746 233.539 29.31C233.539 28.6455 233.763 28.0888 234.212 27.6398C234.679 27.1908 235.245 26.9663 235.909 26.9663C236.556 26.9663 237.104 27.1908 237.553 27.6398C238.02 28.0888 238.253 28.6455 238.253 29.31C238.253 29.9746 238.02 30.5403 237.553 31.0072C237.104 31.4562 236.556 31.6807 235.909 31.6807Z" fill="#FAFAFA"/>
<path d="M240.396 40.4899C240.396 39.0711 240.71 37.8319 241.339 36.7723C241.985 35.6947 242.865 34.8596 243.979 34.2669C245.11 33.6742 246.394 33.3779 247.831 33.3779C249.268 33.3779 250.543 33.6742 251.656 34.2669C252.77 34.8596 253.641 35.6947 254.269 36.7723C254.916 37.8319 255.239 39.0711 255.239 40.4899C255.239 41.9087 254.916 43.1479 254.269 44.2075C253.641 45.2671 252.77 46.0933 251.656 46.6859C250.543 47.2786 249.268 47.5749 247.831 47.5749C246.394 47.5749 245.11 47.2786 243.979 46.6859C242.865 46.0933 241.985 45.2671 241.339 44.2075C240.71 43.1479 240.396 41.9087 240.396 40.4899ZM244.571 40.4629C244.571 41.1454 244.706 41.7471 244.975 42.2679C245.263 42.7708 245.649 43.1659 246.134 43.4532C246.619 43.7226 247.184 43.8573 247.831 43.8573C248.477 43.8573 249.043 43.7226 249.528 43.4532C250.013 43.1659 250.39 42.7708 250.66 42.2679C250.929 41.7471 251.064 41.1454 251.064 40.4629C251.064 39.7805 250.929 39.1878 250.66 38.685C250.39 38.1821 250.013 37.796 249.528 37.5266C249.043 37.2392 248.477 37.0955 247.831 37.0955C247.184 37.0955 246.619 37.2392 246.134 37.5266C245.649 37.796 245.263 38.1821 244.975 38.685C244.706 39.1878 244.571 39.7805 244.571 40.4629Z" fill="#FAFAFA"/>
<path d="M261.793 47.2517H257.644V33.782H261.551L261.82 35.1828C262.233 34.6081 262.799 34.1591 263.517 33.8359C264.254 33.5126 265.062 33.351 265.942 33.351C267.54 33.351 268.779 33.8448 269.659 34.8326C270.557 35.8024 271.006 37.1674 271.006 38.9274V47.2517H266.858V39.9242C266.858 39.0801 266.642 38.4066 266.211 37.9037C265.78 37.3829 265.205 37.1225 264.487 37.1225C263.661 37.1225 263.005 37.3739 262.52 37.8768C262.036 38.3617 261.793 39.0262 261.793 39.8703V47.2517Z" fill="#FAFAFA"/>
<path d="M290.244 47.5749C288.25 47.5749 286.526 47.1619 285.071 46.3357C283.617 45.4916 282.494 44.3063 281.704 42.7797C280.914 41.2352 280.519 39.4123 280.519 37.311C280.519 35.2277 280.932 33.4138 281.758 31.8693C282.584 30.3248 283.742 29.1304 285.233 28.2863C286.724 27.4243 288.457 26.9933 290.432 26.9933C292.102 26.9933 293.584 27.2986 294.877 27.9092C296.188 28.5019 297.257 29.346 298.083 30.4415C298.909 31.537 299.421 32.8301 299.619 34.3208H295.012C294.725 33.315 294.168 32.5428 293.342 32.004C292.533 31.4652 291.528 31.1958 290.324 31.1958C289.247 31.1958 288.313 31.4383 287.523 31.9232C286.75 32.4081 286.158 33.1085 285.745 34.0244C285.332 34.9224 285.125 36.009 285.125 37.2841C285.125 38.5233 285.332 39.6009 285.745 40.5168C286.176 41.4328 286.777 42.1422 287.55 42.645C288.34 43.1299 289.265 43.3724 290.324 43.3724C291.546 43.3724 292.578 43.094 293.422 42.5373C294.285 41.9626 294.85 41.1813 295.12 40.1936H299.645C299.412 41.6662 298.864 42.9593 298.002 44.0728C297.158 45.1863 296.072 46.0484 294.742 46.659C293.413 47.2696 291.914 47.5749 290.244 47.5749Z" fill="#FAFAFA"/>
<path d="M301.325 40.4899C301.325 39.0711 301.639 37.8319 302.268 36.7723C302.914 35.6947 303.794 34.8596 304.908 34.2669C306.039 33.6742 307.323 33.3779 308.76 33.3779C310.197 33.3779 311.472 33.6742 312.586 34.2669C313.699 34.8596 314.57 35.6947 315.199 36.7723C315.845 37.8319 316.169 39.0711 316.169 40.4899C316.169 41.9087 315.845 43.1479 315.199 44.2075C314.57 45.2671 313.699 46.0933 312.586 46.6859C311.472 47.2786 310.197 47.5749 308.76 47.5749C307.323 47.5749 306.039 47.2786 304.908 46.6859C303.794 46.0933 302.914 45.2671 302.268 44.2075C301.639 43.1479 301.325 41.9087 301.325 40.4899ZM305.501 40.4629C305.501 41.1454 305.635 41.7471 305.905 42.2679C306.192 42.7708 306.578 43.1659 307.063 43.4532C307.548 43.7226 308.114 43.8573 308.76 43.8573C309.407 43.8573 309.973 43.7226 310.457 43.4532C310.942 43.1659 311.319 42.7708 311.589 42.2679C311.858 41.7471 311.993 41.1454 311.993 40.4629C311.993 39.7805 311.858 39.1878 311.589 38.685C311.319 38.1821 310.942 37.796 310.457 37.5266C309.973 37.2392 309.407 37.0955 308.76 37.0955C308.114 37.0955 307.548 37.2392 307.063 37.5266C306.578 37.796 306.192 38.1821 305.905 38.685C305.635 39.1878 305.501 39.7805 305.501 40.4629Z" fill="#FAFAFA"/>
<path d="M320.344 47.6019C319.662 47.6019 319.078 47.3684 318.593 46.9015C318.108 46.4166 317.866 45.8418 317.866 45.1773C317.866 44.4949 318.108 43.9202 318.593 43.4532C319.078 42.9683 319.662 42.7259 320.344 42.7259C321.009 42.7259 321.584 42.9683 322.069 43.4532C322.571 43.9202 322.823 44.4949 322.823 45.1773C322.823 45.8418 322.571 46.4166 322.069 46.9015C321.584 47.3684 321.009 47.6019 320.344 47.6019Z" fill="#FAFAFA"/>
</svg>
