<svg width="144" height="64" viewBox="0 0 144 64" fill="none" xmlns="http://www.w3.org/2000/svg">
<path fill-rule="evenodd" clip-rule="evenodd" d="M0 6C0 2.68629 2.68629 0 6 0H138C141.314 0 144 2.68629 144 6V58C144 61.3137 141.314 64 138 64H6C2.68629 64 0 61.3137 0 58V6ZM119.169 44.9288C122.347 45.9613 125.852 44.2 125.983 40.8612C126.039 39.4269 125.955 37.9858 125.729 36.5584C125.186 33.1294 123.839 29.8775 121.798 27.0687C119.758 24.26 117.081 21.974 113.988 20.3979C110.894 18.8217 107.472 18 104 18C100.528 18 97.1056 18.8217 94.0122 20.3979C90.9188 21.974 88.2423 24.26 86.2016 27.0687C84.1609 29.8775 82.814 33.1294 82.2709 36.5584C82.0448 37.9858 81.9607 39.4269 82.0169 40.8612C82.1477 44.2 85.6529 45.9613 88.8307 44.9288L90.1477 44.5009C92.5981 43.7047 93.8188 40.9961 94.2219 38.4513C94.4663 36.9082 95.0724 35.4449 95.9907 34.1809C96.909 32.917 98.1135 31.8883 99.5055 31.179C100.898 30.4698 102.438 30.1 104 30.1C105.562 30.1 107.102 30.4698 108.495 31.179C109.887 31.8883 111.091 32.917 112.009 34.1809C112.928 35.4449 113.534 36.9082 113.778 38.4513C114.181 40.9961 115.402 43.7047 117.852 44.5009L119.169 44.9288ZM60.9831 40.8612C60.8523 44.2 57.3471 45.9613 54.1694 44.9288L52.8523 44.5009C50.4019 43.7047 49.1812 40.9961 48.7781 38.4513C48.5337 36.9082 47.9276 35.4449 47.0093 34.1809C46.091 32.917 44.8865 31.8883 43.4945 31.179C42.1025 30.4698 40.5623 30.1 39 30.1C37.4377 30.1 35.8975 30.4698 34.5055 31.179C33.1135 31.8883 31.909 32.917 30.9907 34.1809C30.0724 35.4449 29.4663 36.9082 29.2219 38.4513C28.8188 40.9961 27.5981 43.7047 25.1477 44.5009L23.8306 44.9288C20.6529 45.9613 17.1477 44.2 17.0169 40.8612C16.9607 39.4269 17.0448 37.9858 17.2709 36.5584C17.814 33.1294 19.1609 29.8775 21.2016 27.0687C23.2423 24.26 25.9188 21.974 29.0122 20.3979C32.1056 18.8217 35.5282 18 39 18C42.4718 18 45.8944 18.8217 48.9878 20.3979C52.0812 21.974 54.7577 24.26 56.7984 27.0687C58.8391 29.8775 60.186 33.1294 60.7291 36.5584C60.9552 37.9858 61.0393 39.4269 60.9831 40.8612Z" fill="#FAFAFA"/>
</svg>
